<svg width="1440" height="1105" viewBox="0 0 1440 1105" fill="#808080" xmlns="http://www.w3.org/2000/svg">
<path d="M82.8992 308.043L85.2139 311.032L92.7706 305.179L97.2137 310.915L89.6569 316.768L92.3175 320.203L100.905 313.552L105.614 319.631L89.4011 332.189L70.5647 307.87L86.7773 295.312L91.4865 301.392L82.8992 308.043ZM99.9544 308.517C98.3759 306.479 97.3536 304.45 96.8877 302.429C96.427 300.368 96.5019 298.478 97.1125 296.76C97.7054 295.018 98.7575 293.562 100.269 292.391C101.528 291.416 102.809 290.846 104.11 290.681C105.416 290.475 106.655 290.632 107.828 291.153L101.097 282.463L108.722 276.556L128.41 301.975L120.784 307.881L118.736 305.236C118.947 306.502 118.798 307.752 118.29 308.989C117.787 310.184 116.906 311.27 115.647 312.245C114.135 313.416 112.471 314.082 110.654 314.243C108.82 314.382 106.971 313.982 105.109 313.043C103.251 312.064 101.533 310.555 99.9544 308.517ZM113.316 298.168C112.518 297.137 111.634 296.54 110.664 296.375C109.694 296.211 108.796 296.448 107.972 297.086C107.148 297.725 106.694 298.534 106.611 299.515C106.527 300.495 106.885 301.501 107.683 302.531C108.481 303.562 109.365 304.159 110.335 304.324C111.305 304.488 112.203 304.251 113.027 303.613C113.851 302.974 114.305 302.165 114.388 301.184C114.472 300.204 114.114 299.198 113.316 298.168ZM137.335 264.066L152.34 283.439L144.715 289.345L142.427 286.391C142.541 287.769 142.316 289.134 141.752 290.486C141.21 291.822 140.253 293.021 138.879 294.085C136.658 295.806 134.341 296.41 131.929 295.897C129.539 295.366 127.36 293.83 125.391 291.288L116.691 280.056L124.282 274.176L132.237 284.447C132.947 285.363 133.755 285.909 134.661 286.086C135.573 286.223 136.441 285.972 137.266 285.333C138.113 284.677 138.573 283.899 138.646 283C138.701 282.078 138.374 281.159 137.664 280.243L129.71 269.973L137.335 264.066ZM145.652 269.11C143.79 266.705 142.613 264.192 142.12 261.569C141.65 258.929 141.921 256.393 142.932 253.961C143.925 251.506 145.647 249.33 148.097 247.432C150.203 245.801 152.392 244.747 154.661 244.271C156.936 243.755 159.147 243.819 161.295 244.464C163.466 245.091 165.468 246.233 167.301 247.89L159.264 254.116C158.276 253.598 157.271 253.388 156.247 253.485C155.228 253.541 154.284 253.906 153.413 254.58C152.131 255.574 151.484 256.844 151.474 258.391C151.486 259.92 152.122 261.498 153.381 263.124C154.64 264.749 156.009 265.759 157.487 266.154C158.987 266.53 160.379 266.222 161.661 265.228C162.531 264.554 163.13 263.743 163.457 262.793C163.789 261.803 163.828 260.766 163.574 259.68L171.611 253.455C172.758 255.644 173.363 257.868 173.427 260.127C173.514 262.368 173.032 264.536 171.981 266.632C170.935 268.688 169.359 270.532 167.252 272.164C164.802 274.061 162.273 275.196 159.666 275.566C157.041 275.914 154.509 275.531 152.07 274.416C149.654 273.283 147.515 271.514 145.652 269.11ZM173.113 251.851C171.535 249.813 170.513 247.784 170.047 245.764C169.586 243.702 169.661 241.813 170.271 240.094C170.864 238.352 171.916 236.896 173.428 235.726C174.687 234.75 175.979 234.171 177.303 233.988C178.609 233.783 179.848 233.94 181.021 234.461L178.972 231.816L186.564 225.936L201.569 245.309L193.978 251.188L191.929 248.544C192.14 249.809 191.991 251.06 191.483 252.296C190.958 253.509 190.065 254.604 188.806 255.579C187.294 256.75 185.63 257.416 183.813 257.577C181.979 257.716 180.13 257.316 178.268 256.377C176.41 255.398 174.692 253.89 173.113 251.851ZM186.475 241.502C185.677 240.472 184.793 239.874 183.823 239.71C182.853 239.545 181.955 239.782 181.131 240.421C180.307 241.059 179.853 241.869 179.77 242.849C179.686 243.829 180.044 244.835 180.842 245.865C181.64 246.896 182.524 247.493 183.494 247.658C184.464 247.822 185.362 247.585 186.186 246.947C187.01 246.308 187.464 245.499 187.547 244.518C187.631 243.538 187.273 242.533 186.475 241.502ZM200.38 220.95C200.29 219.225 200.548 217.595 201.156 216.062C201.746 214.506 202.648 213.258 203.861 212.318L210.167 220.459L208.003 222.135C206.56 223.252 205.69 224.329 205.394 225.365C205.12 226.383 205.479 227.533 206.473 228.816L212.618 236.75L204.993 242.657L189.988 223.284L197.613 217.377L200.38 220.95ZM232.146 205.853C232.554 206.38 232.91 206.91 233.213 207.444L220.951 216.942C222.36 218.525 223.706 218.82 224.988 217.827C225.813 217.188 226.115 216.349 225.896 215.31L233.968 209.057C234.758 210.644 235.132 212.333 235.09 214.124C235.053 215.874 234.608 217.593 233.753 219.281C232.904 220.928 231.678 222.372 230.075 223.614C228.152 225.104 226.124 226.033 223.992 226.402C221.882 226.754 219.828 226.513 217.828 225.681C215.833 224.808 214.055 223.364 212.494 221.349C210.933 219.334 209.988 217.263 209.66 215.136C209.336 212.968 209.609 210.907 210.476 208.953C211.367 206.981 212.774 205.25 214.697 203.76C216.621 202.27 218.637 201.35 220.747 200.998C222.861 200.606 224.898 200.824 226.857 201.651C228.84 202.46 230.603 203.861 232.146 205.853ZM223.007 210.019C222.511 209.377 221.932 209.056 221.271 209.055C220.593 209.031 219.945 209.258 219.327 209.737C217.976 210.783 217.691 212.048 218.473 213.53L223.007 210.019Z" fill="#CBC9C9"/>
<path d="M42.8992 514.043L45.2139 517.032L52.7706 511.179L57.2137 516.915L49.6569 522.768L52.3175 526.203L60.9047 519.552L65.6138 525.631L49.4011 538.189L30.5647 513.87L46.7773 501.312L51.4865 507.392L42.8992 514.043ZM59.9544 514.517C58.3759 512.479 57.3536 510.45 56.8877 508.429C56.427 506.368 56.5019 504.478 57.1125 502.76C57.7054 501.018 58.7575 499.562 60.2688 498.391C61.5283 497.416 62.8085 496.846 64.1095 496.681C65.4157 496.475 66.6551 496.632 67.8277 497.153L61.0966 488.463L68.7221 482.556L88.4099 507.975L80.7844 513.881L78.7358 511.236C78.9467 512.502 78.7981 513.752 78.2901 514.989C77.7872 516.184 76.906 517.27 75.6466 518.245C74.1352 519.416 72.4712 520.082 70.6545 520.243C68.8201 520.382 66.9714 519.982 65.1087 519.043C63.2511 518.064 61.533 516.555 59.9544 514.517ZM73.3161 504.168C72.518 503.137 71.6338 502.54 70.6637 502.375C69.6936 502.211 68.7964 502.448 67.972 503.086C67.1477 503.725 66.6938 504.534 66.6106 505.515C66.5273 506.495 66.8848 507.501 67.6829 508.531C68.4811 509.562 69.3652 510.159 70.3353 510.324C71.3054 510.488 72.2026 510.251 73.027 509.613C73.8514 508.974 74.3052 508.165 74.3885 507.184C74.4717 506.204 74.1143 505.198 73.3161 504.168ZM97.335 470.066L112.34 489.439L104.715 495.345L102.427 492.391C102.541 493.769 102.316 495.134 101.752 496.486C101.21 497.822 100.253 499.021 98.8789 500.085C96.6577 501.806 94.3409 502.41 91.9285 501.897C89.5391 501.366 87.36 499.83 85.3912 497.288L76.6913 486.056L84.2824 480.176L92.2374 490.447C92.9468 491.363 93.7548 491.909 94.6614 492.086C95.5731 492.223 96.4412 491.972 97.2656 491.333C98.1128 490.677 98.5729 489.899 98.6459 489C98.7011 488.078 98.3739 487.159 97.6645 486.243L89.7095 475.973L97.335 470.066ZM105.652 475.11C103.79 472.705 102.613 470.192 102.12 467.569C101.65 464.929 101.921 462.393 102.932 459.961C103.925 457.506 105.647 455.33 108.097 453.432C110.203 451.801 112.392 450.747 114.661 450.271C116.936 449.755 119.147 449.819 121.295 450.464C123.466 451.091 125.468 452.233 127.301 453.89L119.264 460.116C118.276 459.598 117.271 459.388 116.247 459.485C115.228 459.541 114.284 459.906 113.413 460.58C112.131 461.574 111.484 462.844 111.474 464.391C111.486 465.92 112.122 467.498 113.381 469.124C114.64 470.749 116.009 471.759 117.487 472.154C118.987 472.53 120.379 472.222 121.661 471.228C122.531 470.554 123.13 469.743 123.457 468.793C123.789 467.803 123.828 466.766 123.574 465.68L131.611 459.455C132.758 461.644 133.363 463.868 133.427 466.127C133.514 468.368 133.032 470.536 131.981 472.632C130.935 474.688 129.359 476.532 127.252 478.164C124.802 480.061 122.273 481.196 119.666 481.566C117.041 481.914 114.509 481.531 112.07 480.416C109.654 479.283 107.515 477.514 105.652 475.11ZM133.113 457.851C131.535 455.813 130.513 453.784 130.047 451.764C129.586 449.702 129.661 447.813 130.271 446.094C130.864 444.352 131.916 442.896 133.428 441.726C134.687 440.75 135.979 440.171 137.303 439.988C138.609 439.783 139.848 439.94 141.021 440.461L138.972 437.816L146.564 431.936L161.569 451.309L153.978 457.188L151.929 454.544C152.14 455.809 151.991 457.06 151.483 458.296C150.958 459.509 150.065 460.604 148.806 461.579C147.294 462.75 145.63 463.416 143.813 463.577C141.979 463.716 140.13 463.316 138.268 462.377C136.41 461.398 134.692 459.89 133.113 457.851ZM146.475 447.502C145.677 446.472 144.793 445.874 143.823 445.71C142.853 445.545 141.955 445.782 141.131 446.421C140.307 447.059 139.853 447.869 139.77 448.849C139.686 449.829 140.044 450.835 140.842 451.865C141.64 452.896 142.524 453.493 143.494 453.658C144.464 453.822 145.362 453.585 146.186 452.947C147.01 452.308 147.464 451.499 147.547 450.518C147.631 449.538 147.273 448.533 146.475 447.502ZM160.38 426.95C160.29 425.225 160.548 423.595 161.156 422.062C161.746 420.506 162.648 419.258 163.861 418.318L170.167 426.459L168.003 428.135C166.56 429.252 165.69 430.329 165.394 431.365C165.12 432.383 165.479 433.533 166.473 434.816L172.618 442.75L164.993 448.657L149.988 429.284L157.613 423.377L160.38 426.95ZM192.146 411.853C192.554 412.38 192.91 412.91 193.213 413.444L180.951 422.942C182.36 424.525 183.706 424.82 184.988 423.827C185.813 423.188 186.115 422.349 185.896 421.31L193.968 415.057C194.758 416.644 195.132 418.333 195.09 420.124C195.053 421.874 194.608 423.593 193.753 425.281C192.904 426.928 191.678 428.372 190.075 429.614C188.152 431.104 186.124 432.033 183.992 432.402C181.882 432.754 179.828 432.513 177.828 431.681C175.833 430.808 174.055 429.364 172.494 427.349C170.933 425.334 169.988 423.263 169.66 421.136C169.336 418.968 169.609 416.907 170.476 414.953C171.367 412.981 172.774 411.25 174.697 409.76C176.621 408.27 178.637 407.35 180.747 406.998C182.861 406.606 184.898 406.824 186.857 407.651C188.84 408.46 190.603 409.861 192.146 411.853ZM183.007 416.019C182.511 415.377 181.932 415.056 181.271 415.055C180.593 415.031 179.945 415.258 179.327 415.737C177.976 416.783 177.691 418.048 178.473 419.53L183.007 416.019Z" fill="#CBC9C9"/>
<path d="M1348.9 1065.04L1351.21 1068.03L1358.77 1062.18L1363.21 1067.91L1355.66 1073.77L1358.32 1077.2L1366.9 1070.55L1371.61 1076.63L1355.4 1089.19L1336.56 1064.87L1352.78 1052.31L1357.49 1058.39L1348.9 1065.04ZM1365.95 1065.52C1364.38 1063.48 1363.35 1061.45 1362.89 1059.43C1362.43 1057.37 1362.5 1055.48 1363.11 1053.76C1363.71 1052.02 1364.76 1050.56 1366.27 1049.39C1367.53 1048.42 1368.81 1047.85 1370.11 1047.68C1371.42 1047.47 1372.66 1047.63 1373.83 1048.15L1367.1 1039.46L1374.72 1033.56L1394.41 1058.97L1386.78 1064.88L1384.74 1062.24C1384.95 1063.5 1384.8 1064.75 1384.29 1065.99C1383.79 1067.18 1382.91 1068.27 1381.65 1069.25C1380.14 1070.42 1378.47 1071.08 1376.65 1071.24C1374.82 1071.38 1372.97 1070.98 1371.11 1070.04C1369.25 1069.06 1367.53 1067.56 1365.95 1065.52ZM1379.32 1055.17C1378.52 1054.14 1377.63 1053.54 1376.66 1053.38C1375.69 1053.21 1374.8 1053.45 1373.97 1054.09C1373.15 1054.72 1372.69 1055.53 1372.61 1056.51C1372.53 1057.5 1372.88 1058.5 1373.68 1059.53C1374.48 1060.56 1375.37 1061.16 1376.34 1061.32C1377.31 1061.49 1378.2 1061.25 1379.03 1060.61C1379.85 1059.97 1380.31 1059.16 1380.39 1058.18C1380.47 1057.2 1380.11 1056.2 1379.32 1055.17ZM1403.33 1021.07L1418.34 1040.44L1410.71 1046.35L1408.43 1043.39C1408.54 1044.77 1408.32 1046.13 1407.75 1047.49C1407.21 1048.82 1406.25 1050.02 1404.88 1051.09C1402.66 1052.81 1400.34 1053.41 1397.93 1052.9C1395.54 1052.37 1393.36 1050.83 1391.39 1048.29L1382.69 1037.06L1390.28 1031.18L1398.24 1041.45C1398.95 1042.36 1399.75 1042.91 1400.66 1043.09C1401.57 1043.22 1402.44 1042.97 1403.27 1042.33C1404.11 1041.68 1404.57 1040.9 1404.65 1040C1404.7 1039.08 1404.37 1038.16 1403.66 1037.24L1395.71 1026.97L1403.33 1021.07ZM1411.65 1026.11C1409.79 1023.71 1408.61 1021.19 1408.12 1018.57C1407.65 1015.93 1407.92 1013.39 1408.93 1010.96C1409.92 1008.51 1411.65 1006.33 1414.1 1004.43C1416.2 1002.8 1418.39 1001.75 1420.66 1001.27C1422.94 1000.76 1425.15 1000.82 1427.29 1001.46C1429.47 1002.09 1431.47 1003.23 1433.3 1004.89L1425.26 1011.12C1424.28 1010.6 1423.27 1010.39 1422.25 1010.48C1421.23 1010.54 1420.28 1010.91 1419.41 1011.58C1418.13 1012.57 1417.48 1013.84 1417.47 1015.39C1417.49 1016.92 1418.12 1018.5 1419.38 1020.12C1420.64 1021.75 1422.01 1022.76 1423.49 1023.15C1424.99 1023.53 1426.38 1023.22 1427.66 1022.23C1428.53 1021.55 1429.13 1020.74 1429.46 1019.79C1429.79 1018.8 1429.83 1017.77 1429.57 1016.68L1437.61 1010.45C1438.76 1012.64 1439.36 1014.87 1439.43 1017.13C1439.51 1019.37 1439.03 1021.54 1437.98 1023.63C1436.94 1025.69 1435.36 1027.53 1433.25 1029.16C1430.8 1031.06 1428.27 1032.2 1425.67 1032.57C1423.04 1032.91 1420.51 1032.53 1418.07 1031.42C1415.65 1030.28 1413.51 1028.51 1411.65 1026.11ZM1439.11 1008.85C1437.53 1006.81 1436.51 1004.78 1436.05 1002.76C1435.59 1000.7 1435.66 998.813 1436.27 997.094C1436.86 995.352 1437.92 993.896 1439.43 992.726C1440.69 991.75 1441.98 991.171 1443.3 990.988C1444.61 990.783 1445.85 990.94 1447.02 991.461L1444.97 988.816L1452.56 982.936L1467.57 1002.31L1459.98 1008.19L1457.93 1005.54C1458.14 1006.81 1457.99 1008.06 1457.48 1009.3C1456.96 1010.51 1456.07 1011.6 1454.81 1012.58C1453.29 1013.75 1451.63 1014.42 1449.81 1014.58C1447.98 1014.72 1446.13 1014.32 1444.27 1013.38C1442.41 1012.4 1440.69 1010.89 1439.11 1008.85ZM1452.48 998.502C1451.68 997.472 1450.79 996.874 1449.82 996.71C1448.85 996.545 1447.96 996.782 1447.13 997.421C1446.31 998.059 1445.85 998.869 1445.77 999.849C1445.69 1000.83 1446.04 1001.83 1446.84 1002.87C1447.64 1003.9 1448.52 1004.49 1449.49 1004.66C1450.46 1004.82 1451.36 1004.59 1452.19 1003.95C1453.01 1003.31 1453.46 1002.5 1453.55 1001.52C1453.63 1000.54 1453.27 999.533 1452.48 998.502ZM1466.38 977.95C1466.29 976.225 1466.55 974.595 1467.16 973.062C1467.75 971.506 1468.65 970.258 1469.86 969.318L1476.17 977.459L1474 979.135C1472.56 980.252 1471.69 981.329 1471.39 982.365C1471.12 983.383 1471.48 984.533 1472.47 985.816L1478.62 993.75L1470.99 999.657L1455.99 980.284L1463.61 974.377L1466.38 977.95ZM1498.15 962.853C1498.55 963.38 1498.91 963.91 1499.21 964.444L1486.95 973.942C1488.36 975.525 1489.71 975.82 1490.99 974.827C1491.81 974.188 1492.12 973.349 1491.9 972.31L1499.97 966.057C1500.76 967.644 1501.13 969.333 1501.09 971.124C1501.05 972.874 1500.61 974.593 1499.75 976.281C1498.9 977.928 1497.68 979.372 1496.08 980.614C1494.15 982.104 1492.12 983.033 1489.99 983.402C1487.88 983.754 1485.83 983.513 1483.83 982.681C1481.83 981.808 1480.05 980.364 1478.49 978.349C1476.93 976.334 1475.99 974.263 1475.66 972.136C1475.34 969.968 1475.61 967.907 1476.48 965.953C1477.37 963.981 1478.77 962.25 1480.7 960.76C1482.62 959.27 1484.64 958.35 1486.75 957.998C1488.86 957.606 1490.9 957.824 1492.86 958.651C1494.84 959.46 1496.6 960.861 1498.15 962.853ZM1489.01 967.019C1488.51 966.377 1487.93 966.056 1487.27 966.055C1486.59 966.031 1485.94 966.258 1485.33 966.737C1483.98 967.783 1483.69 969.048 1484.47 970.53L1489.01 967.019Z" fill="#CBC9C9"/>
<path d="M170.899 1004.04L173.214 1007.03L180.771 1001.18L185.214 1006.91L177.657 1012.77L180.317 1016.2L188.905 1009.55L193.614 1015.63L177.401 1028.19L158.565 1003.87L174.777 991.312L179.486 997.392L170.899 1004.04ZM187.954 1004.52C186.376 1002.48 185.354 1000.45 184.888 998.429C184.427 996.368 184.502 994.478 185.112 992.76C185.705 991.018 186.757 989.562 188.269 988.391C189.528 987.416 190.809 986.846 192.11 986.681C193.416 986.475 194.655 986.632 195.828 987.153L189.097 978.463L196.722 972.556L216.41 997.975L208.784 1003.88L206.736 1001.24C206.947 1002.5 206.798 1003.75 206.29 1004.99C205.787 1006.18 204.906 1007.27 203.647 1008.25C202.135 1009.42 200.471 1010.08 198.654 1010.24C196.82 1010.38 194.971 1009.98 193.109 1009.04C191.251 1008.06 189.533 1006.56 187.954 1004.52ZM201.316 994.168C200.518 993.137 199.634 992.54 198.664 992.375C197.694 992.211 196.796 992.448 195.972 993.086C195.148 993.725 194.694 994.534 194.611 995.515C194.527 996.495 194.885 997.501 195.683 998.531C196.481 999.562 197.365 1000.16 198.335 1000.32C199.305 1000.49 200.203 1000.25 201.027 999.613C201.851 998.974 202.305 998.165 202.388 997.184C202.472 996.204 202.114 995.198 201.316 994.168ZM225.335 960.066L240.34 979.439L232.715 985.345L230.427 982.391C230.541 983.769 230.316 985.134 229.752 986.486C229.21 987.822 228.253 989.021 226.879 990.085C224.658 991.806 222.341 992.41 219.929 991.897C217.539 991.366 215.36 989.83 213.391 987.288L204.691 976.056L212.282 970.176L220.237 980.447C220.947 981.363 221.755 981.909 222.661 982.086C223.573 982.223 224.441 981.972 225.266 981.333C226.113 980.677 226.573 979.899 226.646 979C226.701 978.078 226.374 977.159 225.664 976.243L217.71 965.973L225.335 960.066ZM233.652 965.11C231.79 962.705 230.613 960.192 230.12 957.569C229.65 954.929 229.921 952.393 230.932 949.961C231.925 947.506 233.647 945.33 236.097 943.432C238.203 941.801 240.392 940.747 242.661 940.271C244.936 939.755 247.147 939.819 249.295 940.464C251.466 941.091 253.468 942.233 255.301 943.89L247.264 950.116C246.276 949.598 245.271 949.388 244.247 949.485C243.228 949.541 242.284 949.906 241.413 950.58C240.131 951.574 239.484 952.844 239.474 954.391C239.486 955.92 240.122 957.498 241.381 959.124C242.64 960.749 244.009 961.759 245.487 962.154C246.987 962.53 248.379 962.222 249.661 961.228C250.531 960.554 251.13 959.743 251.457 958.793C251.789 957.803 251.828 956.766 251.574 955.68L259.611 949.455C260.758 951.644 261.363 953.868 261.427 956.127C261.514 958.368 261.032 960.536 259.981 962.632C258.935 964.688 257.359 966.532 255.252 968.164C252.802 970.061 250.273 971.196 247.666 971.566C245.041 971.914 242.509 971.531 240.07 970.416C237.654 969.283 235.515 967.514 233.652 965.11ZM261.113 947.851C259.535 945.813 258.513 943.784 258.047 941.764C257.586 939.702 257.661 937.813 258.271 936.094C258.864 934.352 259.916 932.896 261.428 931.726C262.687 930.75 263.979 930.171 265.303 929.988C266.609 929.783 267.848 929.94 269.021 930.461L266.972 927.816L274.564 921.936L289.569 941.309L281.978 947.188L279.929 944.544C280.14 945.809 279.991 947.06 279.483 948.296C278.958 949.509 278.065 950.604 276.806 951.579C275.294 952.75 273.63 953.416 271.813 953.577C269.979 953.716 268.13 953.316 266.268 952.377C264.41 951.398 262.692 949.89 261.113 947.851ZM274.475 937.502C273.677 936.472 272.793 935.874 271.823 935.71C270.853 935.545 269.955 935.782 269.131 936.421C268.307 937.059 267.853 937.869 267.77 938.849C267.686 939.829 268.044 940.835 268.842 941.865C269.64 942.896 270.524 943.493 271.494 943.658C272.464 943.822 273.362 943.585 274.186 942.947C275.01 942.308 275.464 941.499 275.547 940.518C275.631 939.538 275.273 938.533 274.475 937.502ZM288.38 916.95C288.29 915.225 288.548 913.595 289.156 912.062C289.746 910.506 290.648 909.258 291.861 908.318L298.167 916.459L296.003 918.135C294.56 919.252 293.69 920.329 293.394 921.365C293.12 922.383 293.479 923.533 294.473 924.816L300.618 932.75L292.993 938.657L277.988 919.284L285.613 913.377L288.38 916.95ZM320.146 901.853C320.554 902.38 320.91 902.91 321.213 903.444L308.951 912.942C310.36 914.525 311.706 914.82 312.988 913.827C313.813 913.188 314.115 912.349 313.896 911.31L321.968 905.057C322.758 906.644 323.132 908.333 323.09 910.124C323.053 911.874 322.608 913.593 321.753 915.281C320.904 916.928 319.678 918.372 318.075 919.614C316.152 921.104 314.124 922.033 311.992 922.402C309.882 922.754 307.828 922.513 305.828 921.681C303.833 920.808 302.055 919.364 300.494 917.349C298.933 915.334 297.988 913.263 297.66 911.136C297.336 908.968 297.609 906.907 298.476 904.953C299.367 902.981 300.774 901.25 302.697 899.76C304.621 898.27 306.637 897.35 308.747 896.998C310.861 896.606 312.898 896.824 314.857 897.651C316.84 898.46 318.603 899.861 320.146 901.853ZM311.007 906.019C310.511 905.377 309.932 905.056 309.271 905.055C308.593 905.031 307.945 905.258 307.327 905.737C305.976 906.783 305.691 908.048 306.473 909.53L311.007 906.019Z" fill="#CBC9C9"/>
<path d="M1169.9 470.043L1172.21 473.032L1179.77 467.179L1184.21 472.915L1176.66 478.768L1179.32 482.203L1187.9 475.552L1192.61 481.631L1176.4 494.189L1157.56 469.87L1173.78 457.312L1178.49 463.392L1169.9 470.043ZM1186.95 470.517C1185.38 468.479 1184.35 466.45 1183.89 464.429C1183.43 462.368 1183.5 460.478 1184.11 458.76C1184.71 457.018 1185.76 455.562 1187.27 454.391C1188.53 453.416 1189.81 452.846 1191.11 452.681C1192.42 452.475 1193.66 452.632 1194.83 453.153L1188.1 444.463L1195.72 438.556L1215.41 463.975L1207.78 469.881L1205.74 467.236C1205.95 468.502 1205.8 469.752 1205.29 470.989C1204.79 472.184 1203.91 473.27 1202.65 474.245C1201.14 475.416 1199.47 476.082 1197.65 476.243C1195.82 476.382 1193.97 475.982 1192.11 475.043C1190.25 474.064 1188.53 472.555 1186.95 470.517ZM1200.32 460.168C1199.52 459.137 1198.63 458.54 1197.66 458.375C1196.69 458.211 1195.8 458.448 1194.97 459.086C1194.15 459.725 1193.69 460.534 1193.61 461.515C1193.53 462.495 1193.88 463.501 1194.68 464.531C1195.48 465.562 1196.37 466.159 1197.34 466.324C1198.31 466.488 1199.2 466.251 1200.03 465.613C1200.85 464.974 1201.31 464.165 1201.39 463.184C1201.47 462.204 1201.11 461.198 1200.32 460.168ZM1224.33 426.066L1239.34 445.439L1231.71 451.345L1229.43 448.391C1229.54 449.769 1229.32 451.134 1228.75 452.486C1228.21 453.822 1227.25 455.021 1225.88 456.085C1223.66 457.806 1221.34 458.41 1218.93 457.897C1216.54 457.366 1214.36 455.83 1212.39 453.288L1203.69 442.056L1211.28 436.176L1219.24 446.447C1219.95 447.363 1220.75 447.909 1221.66 448.086C1222.57 448.223 1223.44 447.972 1224.27 447.333C1225.11 446.677 1225.57 445.899 1225.65 445C1225.7 444.078 1225.37 443.159 1224.66 442.243L1216.71 431.973L1224.33 426.066ZM1232.65 431.11C1230.79 428.705 1229.61 426.192 1229.12 423.569C1228.65 420.929 1228.92 418.393 1229.93 415.961C1230.92 413.506 1232.65 411.33 1235.1 409.432C1237.2 407.801 1239.39 406.747 1241.66 406.271C1243.94 405.755 1246.15 405.819 1248.29 406.464C1250.47 407.091 1252.47 408.233 1254.3 409.89L1246.26 416.116C1245.28 415.598 1244.27 415.388 1243.25 415.485C1242.23 415.541 1241.28 415.906 1240.41 416.58C1239.13 417.574 1238.48 418.844 1238.47 420.391C1238.49 421.92 1239.12 423.498 1240.38 425.124C1241.64 426.749 1243.01 427.759 1244.49 428.154C1245.99 428.53 1247.38 428.222 1248.66 427.228C1249.53 426.554 1250.13 425.743 1250.46 424.793C1250.79 423.803 1250.83 422.766 1250.57 421.68L1258.61 415.455C1259.76 417.644 1260.36 419.868 1260.43 422.127C1260.51 424.368 1260.03 426.536 1258.98 428.632C1257.94 430.688 1256.36 432.532 1254.25 434.164C1251.8 436.061 1249.27 437.196 1246.67 437.566C1244.04 437.914 1241.51 437.531 1239.07 436.416C1236.65 435.283 1234.51 433.514 1232.65 431.11ZM1260.11 413.851C1258.53 411.813 1257.51 409.784 1257.05 407.764C1256.59 405.702 1256.66 403.813 1257.27 402.094C1257.86 400.352 1258.92 398.896 1260.43 397.726C1261.69 396.75 1262.98 396.171 1264.3 395.988C1265.61 395.783 1266.85 395.94 1268.02 396.461L1265.97 393.816L1273.56 387.936L1288.57 407.309L1280.98 413.188L1278.93 410.544C1279.14 411.809 1278.99 413.06 1278.48 414.296C1277.96 415.509 1277.07 416.604 1275.81 417.579C1274.29 418.75 1272.63 419.416 1270.81 419.577C1268.98 419.716 1267.13 419.316 1265.27 418.377C1263.41 417.398 1261.69 415.89 1260.11 413.851ZM1273.48 403.502C1272.68 402.472 1271.79 401.874 1270.82 401.71C1269.85 401.545 1268.96 401.782 1268.13 402.421C1267.31 403.059 1266.85 403.869 1266.77 404.849C1266.69 405.829 1267.04 406.835 1267.84 407.865C1268.64 408.896 1269.52 409.493 1270.49 409.658C1271.46 409.822 1272.36 409.585 1273.19 408.947C1274.01 408.308 1274.46 407.499 1274.55 406.518C1274.63 405.538 1274.27 404.533 1273.48 403.502ZM1287.38 382.95C1287.29 381.225 1287.55 379.595 1288.16 378.062C1288.75 376.506 1289.65 375.258 1290.86 374.318L1297.17 382.459L1295 384.135C1293.56 385.252 1292.69 386.329 1292.39 387.365C1292.12 388.383 1292.48 389.533 1293.47 390.816L1299.62 398.75L1291.99 404.657L1276.99 385.284L1284.61 379.377L1287.38 382.95ZM1319.15 367.853C1319.55 368.38 1319.91 368.91 1320.21 369.444L1307.95 378.942C1309.36 380.525 1310.71 380.82 1311.99 379.827C1312.81 379.188 1313.12 378.349 1312.9 377.31L1320.97 371.057C1321.76 372.644 1322.13 374.333 1322.09 376.124C1322.05 377.874 1321.61 379.593 1320.75 381.281C1319.9 382.928 1318.68 384.372 1317.08 385.614C1315.15 387.104 1313.12 388.033 1310.99 388.402C1308.88 388.754 1306.83 388.513 1304.83 387.681C1302.83 386.808 1301.05 385.364 1299.49 383.349C1297.93 381.334 1296.99 379.263 1296.66 377.136C1296.34 374.968 1296.61 372.907 1297.48 370.953C1298.37 368.981 1299.77 367.25 1301.7 365.76C1303.62 364.27 1305.64 363.35 1307.75 362.998C1309.86 362.606 1311.9 362.824 1313.86 363.651C1315.84 364.46 1317.6 365.861 1319.15 367.853ZM1310.01 372.019C1309.51 371.377 1308.93 371.056 1308.27 371.055C1307.59 371.031 1306.94 371.258 1306.33 371.737C1304.98 372.783 1304.69 374.048 1305.47 375.53L1310.01 372.019Z" fill="#CBC9C9"/>
<path d="M1138.9 194.043L1141.21 197.032L1148.77 191.179L1153.21 196.915L1145.66 202.768L1148.32 206.203L1156.9 199.552L1161.61 205.631L1145.4 218.189L1126.56 193.87L1142.78 181.312L1147.49 187.392L1138.9 194.043ZM1155.95 194.517C1154.38 192.479 1153.35 190.45 1152.89 188.429C1152.43 186.368 1152.5 184.478 1153.11 182.76C1153.71 181.018 1154.76 179.562 1156.27 178.391C1157.53 177.416 1158.81 176.846 1160.11 176.681C1161.42 176.475 1162.66 176.632 1163.83 177.153L1157.1 168.463L1164.72 162.556L1184.41 187.975L1176.78 193.881L1174.74 191.236C1174.95 192.502 1174.8 193.752 1174.29 194.989C1173.79 196.184 1172.91 197.27 1171.65 198.245C1170.14 199.416 1168.47 200.082 1166.65 200.243C1164.82 200.382 1162.97 199.982 1161.11 199.043C1159.25 198.064 1157.53 196.555 1155.95 194.517ZM1169.32 184.168C1168.52 183.137 1167.63 182.54 1166.66 182.375C1165.69 182.211 1164.8 182.448 1163.97 183.086C1163.15 183.725 1162.69 184.534 1162.61 185.515C1162.53 186.495 1162.88 187.501 1163.68 188.531C1164.48 189.562 1165.37 190.159 1166.34 190.324C1167.31 190.488 1168.2 190.251 1169.03 189.613C1169.85 188.974 1170.31 188.165 1170.39 187.184C1170.47 186.204 1170.11 185.198 1169.32 184.168ZM1193.33 150.066L1208.34 169.439L1200.71 175.345L1198.43 172.391C1198.54 173.769 1198.32 175.134 1197.75 176.486C1197.21 177.822 1196.25 179.021 1194.88 180.085C1192.66 181.806 1190.34 182.41 1187.93 181.897C1185.54 181.366 1183.36 179.83 1181.39 177.288L1172.69 166.056L1180.28 160.176L1188.24 170.447C1188.95 171.363 1189.75 171.909 1190.66 172.086C1191.57 172.223 1192.44 171.972 1193.27 171.333C1194.11 170.677 1194.57 169.899 1194.65 169C1194.7 168.078 1194.37 167.159 1193.66 166.243L1185.71 155.973L1193.33 150.066ZM1201.65 155.11C1199.79 152.705 1198.61 150.192 1198.12 147.569C1197.65 144.929 1197.92 142.393 1198.93 139.961C1199.92 137.506 1201.65 135.33 1204.1 133.432C1206.2 131.801 1208.39 130.747 1210.66 130.271C1212.94 129.755 1215.15 129.819 1217.29 130.464C1219.47 131.091 1221.47 132.233 1223.3 133.89L1215.26 140.116C1214.28 139.598 1213.27 139.388 1212.25 139.485C1211.23 139.541 1210.28 139.906 1209.41 140.58C1208.13 141.574 1207.48 142.844 1207.47 144.391C1207.49 145.92 1208.12 147.498 1209.38 149.124C1210.64 150.749 1212.01 151.759 1213.49 152.154C1214.99 152.53 1216.38 152.222 1217.66 151.228C1218.53 150.554 1219.13 149.743 1219.46 148.793C1219.79 147.803 1219.83 146.766 1219.57 145.68L1227.61 139.455C1228.76 141.644 1229.36 143.868 1229.43 146.127C1229.51 148.368 1229.03 150.536 1227.98 152.632C1226.94 154.688 1225.36 156.532 1223.25 158.164C1220.8 160.061 1218.27 161.196 1215.67 161.566C1213.04 161.914 1210.51 161.531 1208.07 160.416C1205.65 159.283 1203.51 157.514 1201.65 155.11ZM1229.11 137.851C1227.53 135.813 1226.51 133.784 1226.05 131.764C1225.59 129.702 1225.66 127.813 1226.27 126.094C1226.86 124.352 1227.92 122.896 1229.43 121.726C1230.69 120.75 1231.98 120.171 1233.3 119.988C1234.61 119.783 1235.85 119.94 1237.02 120.461L1234.97 117.816L1242.56 111.936L1257.57 131.309L1249.98 137.188L1247.93 134.544C1248.14 135.809 1247.99 137.06 1247.48 138.296C1246.96 139.509 1246.07 140.604 1244.81 141.579C1243.29 142.75 1241.63 143.416 1239.81 143.577C1237.98 143.716 1236.13 143.316 1234.27 142.377C1232.41 141.398 1230.69 139.89 1229.11 137.851ZM1242.48 127.502C1241.68 126.472 1240.79 125.874 1239.82 125.71C1238.85 125.545 1237.96 125.782 1237.13 126.421C1236.31 127.059 1235.85 127.869 1235.77 128.849C1235.69 129.829 1236.04 130.835 1236.84 131.865C1237.64 132.896 1238.52 133.493 1239.49 133.658C1240.46 133.822 1241.36 133.585 1242.19 132.947C1243.01 132.308 1243.46 131.499 1243.55 130.518C1243.63 129.538 1243.27 128.533 1242.48 127.502ZM1256.38 106.95C1256.29 105.225 1256.55 103.595 1257.16 102.062C1257.75 100.506 1258.65 99.2582 1259.86 98.3181L1266.17 106.459L1264 108.135C1262.56 109.252 1261.69 110.329 1261.39 111.365C1261.12 112.383 1261.48 113.533 1262.47 114.816L1268.62 122.75L1260.99 128.657L1245.99 109.284L1253.61 103.377L1256.38 106.95ZM1288.15 91.8528C1288.55 92.3795 1288.91 92.9099 1289.21 93.444L1276.95 102.942C1278.36 104.525 1279.71 104.82 1280.99 103.827C1281.81 103.188 1282.12 102.349 1281.9 101.31L1289.97 95.0574C1290.76 96.6442 1291.13 98.333 1291.09 100.124C1291.05 101.874 1290.61 103.593 1289.75 105.281C1288.9 106.928 1287.68 108.372 1286.08 109.614C1284.15 111.104 1282.12 112.033 1279.99 112.402C1277.88 112.754 1275.83 112.513 1273.83 111.681C1271.83 110.808 1270.05 109.364 1268.49 107.349C1266.93 105.334 1265.99 103.263 1265.66 101.136C1265.34 98.9684 1265.61 96.9074 1266.48 94.953C1267.37 92.9809 1268.77 91.2499 1270.7 89.76C1272.62 88.2702 1274.64 87.3495 1276.75 86.9981C1278.86 86.606 1280.9 86.8235 1282.86 87.6506C1284.84 88.4598 1286.6 89.8606 1288.15 91.8528ZM1279.01 96.0185C1278.51 95.3773 1277.93 95.0561 1277.27 95.0547C1276.59 95.0305 1275.94 95.2578 1275.33 95.7367C1273.98 96.7832 1273.69 98.0478 1274.47 99.5304L1279.01 96.0185Z" fill="#CBC9C9"/>
<path d="M1195.9 863.043L1198.21 866.032L1205.77 860.179L1210.21 865.915L1202.66 871.768L1205.32 875.203L1213.9 868.552L1218.61 874.631L1202.4 887.189L1183.56 862.87L1199.78 850.312L1204.49 856.392L1195.9 863.043ZM1212.95 863.517C1211.38 861.479 1210.35 859.45 1209.89 857.429C1209.43 855.368 1209.5 853.478 1210.11 851.76C1210.71 850.018 1211.76 848.562 1213.27 847.391C1214.53 846.416 1215.81 845.846 1217.11 845.681C1218.42 845.475 1219.66 845.632 1220.83 846.153L1214.1 837.463L1221.72 831.556L1241.41 856.975L1233.78 862.881L1231.74 860.236C1231.95 861.502 1231.8 862.752 1231.29 863.989C1230.79 865.184 1229.91 866.27 1228.65 867.245C1227.14 868.416 1225.47 869.082 1223.65 869.243C1221.82 869.382 1219.97 868.982 1218.11 868.043C1216.25 867.064 1214.53 865.555 1212.95 863.517ZM1226.32 853.168C1225.52 852.137 1224.63 851.54 1223.66 851.375C1222.69 851.211 1221.8 851.448 1220.97 852.086C1220.15 852.725 1219.69 853.534 1219.61 854.515C1219.53 855.495 1219.88 856.501 1220.68 857.531C1221.48 858.562 1222.37 859.159 1223.34 859.324C1224.31 859.488 1225.2 859.251 1226.03 858.613C1226.85 857.974 1227.31 857.165 1227.39 856.184C1227.47 855.204 1227.11 854.198 1226.32 853.168ZM1250.33 819.066L1265.34 838.439L1257.71 844.345L1255.43 841.391C1255.54 842.769 1255.32 844.134 1254.75 845.486C1254.21 846.822 1253.25 848.021 1251.88 849.085C1249.66 850.806 1247.34 851.41 1244.93 850.897C1242.54 850.366 1240.36 848.83 1238.39 846.288L1229.69 835.056L1237.28 829.176L1245.24 839.447C1245.95 840.363 1246.75 840.909 1247.66 841.086C1248.57 841.223 1249.44 840.972 1250.27 840.333C1251.11 839.677 1251.57 838.899 1251.65 838C1251.7 837.078 1251.37 836.159 1250.66 835.243L1242.71 824.973L1250.33 819.066ZM1258.65 824.11C1256.79 821.705 1255.61 819.192 1255.12 816.569C1254.65 813.929 1254.92 811.393 1255.93 808.961C1256.92 806.506 1258.65 804.33 1261.1 802.432C1263.2 800.801 1265.39 799.747 1267.66 799.271C1269.94 798.755 1272.15 798.819 1274.29 799.464C1276.47 800.091 1278.47 801.233 1280.3 802.89L1272.26 809.116C1271.28 808.598 1270.27 808.388 1269.25 808.485C1268.23 808.541 1267.28 808.906 1266.41 809.58C1265.13 810.574 1264.48 811.844 1264.47 813.391C1264.49 814.92 1265.12 816.498 1266.38 818.124C1267.64 819.749 1269.01 820.759 1270.49 821.154C1271.99 821.53 1273.38 821.222 1274.66 820.228C1275.53 819.554 1276.13 818.743 1276.46 817.793C1276.79 816.803 1276.83 815.766 1276.57 814.68L1284.61 808.455C1285.76 810.644 1286.36 812.868 1286.43 815.127C1286.51 817.368 1286.03 819.536 1284.98 821.632C1283.94 823.688 1282.36 825.532 1280.25 827.164C1277.8 829.061 1275.27 830.196 1272.67 830.566C1270.04 830.914 1267.51 830.531 1265.07 829.416C1262.65 828.283 1260.51 826.514 1258.65 824.11ZM1286.11 806.851C1284.53 804.813 1283.51 802.784 1283.05 800.764C1282.59 798.702 1282.66 796.813 1283.27 795.094C1283.86 793.352 1284.92 791.896 1286.43 790.726C1287.69 789.75 1288.98 789.171 1290.3 788.988C1291.61 788.783 1292.85 788.94 1294.02 789.461L1291.97 786.816L1299.56 780.936L1314.57 800.309L1306.98 806.188L1304.93 803.544C1305.14 804.809 1304.99 806.06 1304.48 807.296C1303.96 808.509 1303.07 809.604 1301.81 810.579C1300.29 811.75 1298.63 812.416 1296.81 812.577C1294.98 812.716 1293.13 812.316 1291.27 811.377C1289.41 810.398 1287.69 808.89 1286.11 806.851ZM1299.48 796.502C1298.68 795.472 1297.79 794.874 1296.82 794.71C1295.85 794.545 1294.96 794.782 1294.13 795.421C1293.31 796.059 1292.85 796.869 1292.77 797.849C1292.69 798.829 1293.04 799.835 1293.84 800.865C1294.64 801.896 1295.52 802.493 1296.49 802.658C1297.46 802.822 1298.36 802.585 1299.19 801.947C1300.01 801.308 1300.46 800.499 1300.55 799.518C1300.63 798.538 1300.27 797.533 1299.48 796.502ZM1313.38 775.95C1313.29 774.225 1313.55 772.595 1314.16 771.062C1314.75 769.506 1315.65 768.258 1316.86 767.318L1323.17 775.459L1321 777.135C1319.56 778.252 1318.69 779.329 1318.39 780.365C1318.12 781.383 1318.48 782.533 1319.47 783.816L1325.62 791.75L1317.99 797.657L1302.99 778.284L1310.61 772.377L1313.38 775.95ZM1345.15 760.853C1345.55 761.38 1345.91 761.91 1346.21 762.444L1333.95 771.942C1335.36 773.525 1336.71 773.82 1337.99 772.827C1338.81 772.188 1339.12 771.349 1338.9 770.31L1346.97 764.057C1347.76 765.644 1348.13 767.333 1348.09 769.124C1348.05 770.874 1347.61 772.593 1346.75 774.281C1345.9 775.928 1344.68 777.372 1343.08 778.614C1341.15 780.104 1339.12 781.033 1336.99 781.402C1334.88 781.754 1332.83 781.513 1330.83 780.681C1328.83 779.808 1327.05 778.364 1325.49 776.349C1323.93 774.334 1322.99 772.263 1322.66 770.136C1322.34 767.968 1322.61 765.907 1323.48 763.953C1324.37 761.981 1325.77 760.25 1327.7 758.76C1329.62 757.27 1331.64 756.35 1333.75 755.998C1335.86 755.606 1337.9 755.824 1339.86 756.651C1341.84 757.46 1343.6 758.861 1345.15 760.853ZM1336.01 765.019C1335.51 764.377 1334.93 764.056 1334.27 764.055C1333.59 764.031 1332.94 764.258 1332.33 764.737C1330.98 765.783 1330.69 767.048 1331.47 768.53L1336.01 765.019Z" fill="#CBC9C9"/>
<path d="M-53.1008 131.043L-50.7861 134.032L-43.2294 128.179L-38.7863 133.915L-46.3431 139.768L-43.6825 143.203L-35.0953 136.552L-30.3862 142.631L-46.5989 155.189L-65.4353 130.87L-49.2227 118.312L-44.5135 124.392L-53.1008 131.043ZM-36.0456 131.517C-37.6241 129.479 -38.6464 127.45 -39.1123 125.429C-39.573 123.368 -39.4981 121.478 -38.8875 119.76C-38.2946 118.018 -37.2425 116.562 -35.7312 115.391C-34.4717 114.416 -33.1915 113.846 -31.8905 113.681C-30.5843 113.475 -29.3449 113.632 -28.1723 114.153L-34.9034 105.463L-27.2779 99.5564L-7.59014 124.975L-15.2156 130.881L-17.2642 128.236C-17.0533 129.502 -17.2019 130.752 -17.7099 131.989C-18.2128 133.184 -19.094 134.27 -20.3534 135.245C-21.8648 136.416 -23.5288 137.082 -25.3455 137.243C-27.1799 137.382 -29.0286 136.982 -30.8913 136.043C-32.7489 135.064 -34.467 133.555 -36.0456 131.517ZM-22.6839 121.168C-23.482 120.137 -24.3662 119.54 -25.3363 119.375C-26.3064 119.211 -27.2036 119.448 -28.028 120.086C-28.8523 120.725 -29.3062 121.534 -29.3894 122.515C-29.4727 123.495 -29.1152 124.501 -28.3171 125.531C-27.5189 126.562 -26.6348 127.159 -25.6647 127.324C-24.6946 127.488 -23.7974 127.251 -22.973 126.613C-22.1486 125.974 -21.6948 125.165 -21.6115 124.184C-21.5283 123.204 -21.8857 122.198 -22.6839 121.168ZM1.33498 87.0663L16.3403 106.439L8.71482 112.345L6.42678 109.391C6.54087 110.769 6.31585 112.134 5.7517 113.486C5.21045 114.822 4.25285 116.021 2.8789 117.085C0.657671 118.806 -1.65911 119.41 -4.07146 118.897C-6.46091 118.366 -8.64002 116.83 -10.6088 114.288L-19.3087 103.056L-11.7176 97.1763L-3.76265 107.447C-3.05318 108.363 -2.24516 108.909 -1.3386 109.086C-0.426867 109.223 0.441183 108.972 1.26556 108.333C2.11283 107.677 2.57293 106.899 2.64587 106C2.70107 105.078 2.37394 104.159 1.66447 103.243L-6.29046 92.9727L1.33498 87.0663ZM9.65248 92.1097C7.79012 89.7053 6.61262 87.1918 6.11997 84.5691C5.65023 81.9287 5.9208 79.3926 6.93168 76.961C7.92483 74.5064 9.64651 72.3302 12.0967 70.4324C14.2035 68.8006 16.3916 67.7469 18.6611 67.2713C20.9358 66.7551 23.1471 66.8193 25.295 67.4638C27.4658 68.0905 29.4678 69.2327 31.3012 70.8901L23.2636 77.1157C22.2764 76.5981 21.2708 76.3877 20.2469 76.4847C19.228 76.5411 18.2836 76.9063 17.4134 77.5803C16.131 78.5736 15.4845 79.8437 15.4738 81.3908C15.4859 82.9202 16.1217 84.4978 17.381 86.1236C18.6403 87.7494 20.0088 88.7595 21.4865 89.1537C22.9871 89.5301 24.3786 89.2217 25.661 88.2284C26.5311 87.5545 27.1298 86.7427 27.4568 85.7933C27.7891 84.8032 27.828 83.7655 27.5736 82.6803L35.6112 76.4547C36.7576 78.6442 37.3629 80.8683 37.4269 83.1268C37.5139 85.3677 37.0319 87.5362 35.9811 89.6324C34.9354 91.6881 33.3591 93.5318 31.2524 95.1635C28.8022 97.0614 26.2735 98.1957 23.6663 98.5664C21.0414 98.9142 18.5094 98.5306 16.0703 97.4156C13.6541 96.2828 11.5148 94.5142 9.65248 92.1097ZM37.1134 74.8515C35.5349 72.8134 34.5126 70.7842 34.0467 68.7636C33.5859 66.7024 33.6609 64.8125 34.2715 63.0939C34.8644 61.3524 35.9165 59.8963 37.4278 58.7257C38.6873 57.7502 39.979 57.171 41.3029 56.9882C42.6091 56.7825 43.8485 56.94 45.0211 57.4606L42.9725 54.8157L50.5636 48.936L65.5689 68.3087L57.9778 74.1885L55.9292 71.5436C56.14 72.8091 55.9914 74.06 55.4834 75.2961C54.9576 76.5094 54.065 77.6038 52.8056 78.5793C51.2942 79.7499 49.6302 80.416 47.8135 80.5775C45.9791 80.716 44.1304 80.316 42.2677 79.3774C40.4101 78.3982 38.692 76.8895 37.1134 74.8515ZM50.4751 64.5021C49.677 63.4716 48.7928 62.8741 47.8227 62.7096C46.8526 62.5451 45.9554 62.782 45.131 63.4206C44.3067 64.0591 43.8528 64.8686 43.7696 65.849C43.6863 66.8294 44.0438 67.8349 44.8419 68.8653C45.6401 69.8958 46.5242 70.4933 47.4943 70.6578C48.4644 70.8224 49.3616 70.5854 50.186 69.9468C51.0104 69.3083 51.4642 68.4989 51.5475 67.5184C51.6307 66.538 51.2733 65.5326 50.4751 64.5021ZM64.3801 43.9497C64.2896 42.2246 64.5481 40.5955 65.1558 39.0623C65.7458 37.5062 66.6476 36.2582 67.8613 35.3181L74.1667 43.4588L72.0027 45.1349C70.5601 46.2523 69.6903 47.329 69.3936 48.3649C69.1197 49.383 69.4794 50.5333 70.4727 51.8156L76.6184 59.7502L68.993 65.6565L53.9877 46.2838L61.6132 40.3775L64.3801 43.9497ZM96.1457 28.8528C96.5537 29.3795 96.9095 29.9099 97.2133 30.444L84.9508 39.942C86.36 41.525 87.7059 41.8198 88.9882 40.8266C89.8126 40.1881 90.1153 39.3491 89.8964 38.3096L97.9684 32.0574C98.7578 33.6442 99.1316 35.333 99.0899 37.1239C99.0534 38.8742 98.6079 40.5931 97.7535 42.2808C96.9042 43.9278 95.6781 45.3721 94.0752 46.6137C92.1516 48.1036 90.1238 49.0331 87.9917 49.4022C85.8824 49.7536 83.8277 49.5133 81.8276 48.6811C79.8326 47.8082 78.0547 46.3643 76.4938 44.3491C74.933 42.334 73.9883 40.2629 73.6598 38.136C73.3364 35.9684 73.6086 33.9074 74.4763 31.953C75.3668 29.9809 76.7739 28.2499 78.6974 26.76C80.6209 25.2702 82.6373 24.3495 84.7466 23.9981C86.861 23.606 88.8979 23.8235 90.8574 24.6506C92.8399 25.4598 94.6026 26.8606 96.1457 28.8528ZM87.0072 33.0185C86.5105 32.3773 85.932 32.0561 85.2715 32.0547C84.5932 32.0305 83.945 32.2578 83.3267 32.7367C81.9756 33.7832 81.6911 35.0478 82.4731 36.5304L87.0072 33.0185Z" fill="#CBC9C9"/>
</svg>
