<svg width="271" height="57" viewBox="0 0 271 57" fill="none" xmlns="http://www.w3.org/2000/svg">
<path d="M86.6242 14.3V17.175H92.2492V20.9H86.6242V24.075H92.9992V28H81.7242V10.375H92.9992V14.3H86.6242ZM94.6205 20.975C94.6205 19.525 94.8788 18.2583 95.3955 17.175C95.9288 16.0917 96.6538 15.2583 97.5705 14.675C98.4872 14.0917 99.5038 13.8 100.621 13.8C101.521 13.8 102.321 13.9917 103.021 14.375C103.737 14.7417 104.296 15.25 104.696 15.9V9.5H109.621V28H104.696V26.05C104.312 26.7 103.771 27.2167 103.071 27.6C102.371 27.9833 101.546 28.175 100.596 28.175C99.4788 28.175 98.4622 27.8833 97.5455 27.3C96.6455 26.7167 95.9288 25.8833 95.3955 24.8C94.8788 23.7 94.6205 22.425 94.6205 20.975ZM104.721 20.975C104.721 20.075 104.471 19.3667 103.971 18.85C103.487 18.3333 102.887 18.075 102.171 18.075C101.437 18.075 100.829 18.3333 100.346 18.85C99.8622 19.35 99.6205 20.0583 99.6205 20.975C99.6205 21.875 99.8622 22.5917 100.346 23.125C100.829 23.6417 101.437 23.9 102.171 23.9C102.887 23.9 103.487 23.6417 103.971 23.125C104.471 22.6083 104.721 21.8917 104.721 20.975ZM126.763 13.975V28H121.838V26C121.421 26.6333 120.846 27.15 120.113 27.55C119.379 27.9333 118.538 28.125 117.588 28.125C115.954 28.125 114.663 27.5917 113.713 26.525C112.779 25.4417 112.313 23.975 112.313 22.125V13.975H117.188V21.5C117.188 22.3 117.396 22.9333 117.813 23.4C118.246 23.85 118.813 24.075 119.513 24.075C120.229 24.075 120.796 23.85 121.213 23.4C121.629 22.9333 121.838 22.3 121.838 21.5V13.975H126.763ZM128.951 19.15C128.951 17.4167 129.31 15.875 130.026 14.525C130.76 13.1583 131.793 12.1 133.126 11.35C134.46 10.5833 135.993 10.2 137.726 10.2C139.926 10.2 141.776 10.7917 143.276 11.975C144.776 13.1417 145.743 14.7333 146.176 16.75H140.901C140.585 16.0833 140.143 15.575 139.576 15.225C139.026 14.875 138.385 14.7 137.651 14.7C136.518 14.7 135.61 15.1083 134.926 15.925C134.26 16.725 133.926 17.8 133.926 19.15C133.926 20.5167 134.26 21.6083 134.926 22.425C135.61 23.225 136.518 23.625 137.651 23.625C138.385 23.625 139.026 23.45 139.576 23.1C140.143 22.75 140.585 22.2417 140.901 21.575H146.176C145.743 23.5917 144.776 25.1917 143.276 26.375C141.776 27.5417 139.926 28.125 137.726 28.125C135.993 28.125 134.46 27.75 133.126 27C131.793 26.2333 130.76 25.175 130.026 23.825C129.31 22.4583 128.951 20.9 128.951 19.15ZM147.697 20.975C147.697 19.525 147.955 18.2583 148.472 17.175C149.005 16.0917 149.722 15.2583 150.622 14.675C151.538 14.0917 152.555 13.8 153.672 13.8C154.638 13.8 155.472 13.9917 156.172 14.375C156.872 14.7583 157.413 15.275 157.797 15.925V13.975H162.697V28H157.797V26.05C157.413 26.7 156.863 27.2167 156.147 27.6C155.447 27.9833 154.622 28.175 153.672 28.175C152.555 28.175 151.538 27.8833 150.622 27.3C149.722 26.7167 149.005 25.8833 148.472 24.8C147.955 23.7 147.697 22.425 147.697 20.975ZM157.797 20.975C157.797 20.075 157.547 19.3667 157.047 18.85C156.563 18.3333 155.963 18.075 155.247 18.075C154.513 18.075 153.905 18.3333 153.422 18.85C152.938 19.35 152.697 20.0583 152.697 20.975C152.697 21.875 152.938 22.5917 153.422 23.125C153.905 23.6417 154.513 23.9 155.247 23.9C155.963 23.9 156.563 23.6417 157.047 23.125C157.547 22.6083 157.797 21.8917 157.797 20.975ZM170.389 16.45C170.939 15.65 171.606 15.0167 172.389 14.55C173.172 14.0833 174.014 13.85 174.914 13.85V19.075H173.539C172.472 19.075 171.681 19.2833 171.164 19.7C170.647 20.1167 170.389 20.8417 170.389 21.875V28H165.489V13.975H170.389V16.45ZM190.071 20.825C190.071 21.2083 190.046 21.5917 189.996 21.975H180.721C180.771 22.7417 180.979 23.3167 181.346 23.7C181.729 24.0667 182.212 24.25 182.796 24.25C183.612 24.25 184.196 23.8833 184.546 23.15H189.771C189.554 24.1167 189.129 24.9833 188.496 25.75C187.879 26.5 187.096 27.0917 186.146 27.525C185.196 27.9583 184.146 28.175 182.996 28.175C181.612 28.175 180.379 27.8833 179.296 27.3C178.229 26.7167 177.387 25.8833 176.771 24.8C176.171 23.7167 175.871 22.4417 175.871 20.975C175.871 19.5083 176.171 18.2417 176.771 17.175C177.371 16.0917 178.204 15.2583 179.271 14.675C180.354 14.0917 181.596 13.8 182.996 13.8C184.379 13.8 185.604 14.0833 186.671 14.65C187.737 15.2167 188.571 16.0333 189.171 17.1C189.771 18.15 190.071 19.3917 190.071 20.825ZM185.071 19.6C185.071 19 184.871 18.5333 184.471 18.2C184.071 17.85 183.571 17.675 182.971 17.675C182.371 17.675 181.879 17.8417 181.496 18.175C181.112 18.4917 180.862 18.9667 180.746 19.6H185.071Z" fill="black"/>
<path d="M5.64844 48.0078H2.72656L2.71094 46.3984H5.16406C5.59635 46.3984 5.95052 46.3438 6.22656 46.2344C6.5026 46.1198 6.70833 45.9557 6.84375 45.7422C6.98438 45.5234 7.05469 45.2578 7.05469 44.9453C7.05469 44.5911 6.98698 44.3047 6.85156 44.0859C6.72135 43.8672 6.51562 43.7083 6.23438 43.6094C5.95833 43.5104 5.60156 43.4609 5.16406 43.4609H3.53906V53H1.19531V41.625H5.16406C5.82552 41.625 6.41667 41.6875 6.9375 41.8125C7.46354 41.9375 7.90885 42.1276 8.27344 42.3828C8.63802 42.638 8.91667 42.9609 9.10938 43.3516C9.30208 43.737 9.39844 44.1953 9.39844 44.7266C9.39844 45.1953 9.29167 45.6276 9.07812 46.0234C8.86979 46.4193 8.53906 46.7422 8.08594 46.9922C7.63802 47.2422 7.05208 47.3802 6.32812 47.4062L5.64844 48.0078ZM5.54688 53H2.08594L3 51.1719H5.54688C5.95833 51.1719 6.29427 51.1068 6.55469 50.9766C6.8151 50.8411 7.00781 50.6589 7.13281 50.4297C7.25781 50.2005 7.32031 49.9375 7.32031 49.6406C7.32031 49.3073 7.26302 49.0182 7.14844 48.7734C7.03906 48.5286 6.86198 48.3411 6.61719 48.2109C6.3724 48.0755 6.04948 48.0078 5.64844 48.0078H3.39062L3.40625 46.3984H6.21875L6.75781 47.0312C7.45052 47.0208 8.00781 47.1432 8.42969 47.3984C8.85677 47.6484 9.16667 47.974 9.35938 48.375C9.55729 48.776 9.65625 49.2057 9.65625 49.6641C9.65625 50.3932 9.4974 51.0078 9.17969 51.5078C8.86198 52.0026 8.39583 52.375 7.78125 52.625C7.17188 52.875 6.42708 53 5.54688 53ZM13.5234 46.3906V53H11.2734V44.5469H13.3906L13.5234 46.3906ZM16.0703 44.4922L16.0312 46.5781C15.9219 46.5625 15.7891 46.5495 15.6328 46.5391C15.4818 46.5234 15.3438 46.5156 15.2188 46.5156C14.901 46.5156 14.625 46.5573 14.3906 46.6406C14.1615 46.7188 13.9688 46.8359 13.8125 46.9922C13.6615 47.1484 13.5469 47.3385 13.4688 47.5625C13.3958 47.7865 13.3542 48.0417 13.3438 48.3281L12.8906 48.1875C12.8906 47.6406 12.9453 47.138 13.0547 46.6797C13.1641 46.2161 13.3229 45.8125 13.5312 45.4688C13.7448 45.125 14.0052 44.8594 14.3125 44.6719C14.6198 44.4844 14.9714 44.3906 15.3672 44.3906C15.4922 44.3906 15.6198 44.401 15.75 44.4219C15.8802 44.4375 15.987 44.4609 16.0703 44.4922ZM19.5078 44.5469V53H17.25V44.5469H19.5078ZM17.1094 42.3438C17.1094 42.0156 17.224 41.7448 17.4531 41.5312C17.6823 41.3177 17.9896 41.2109 18.375 41.2109C18.7552 41.2109 19.0599 41.3177 19.2891 41.5312C19.5234 41.7448 19.6406 42.0156 19.6406 42.3438C19.6406 42.6719 19.5234 42.9427 19.2891 43.1562C19.0599 43.3698 18.7552 43.4766 18.375 43.4766C17.9896 43.4766 17.6823 43.3698 17.4531 43.1562C17.224 42.9427 17.1094 42.6719 17.1094 42.3438ZM26.3594 51.1562V41H28.625V53H26.5859L26.3594 51.1562ZM21.0156 48.875V48.7109C21.0156 48.0651 21.0885 47.4792 21.2344 46.9531C21.3802 46.4219 21.5938 45.9661 21.875 45.5859C22.1562 45.2057 22.5026 44.9115 22.9141 44.7031C23.3255 44.4948 23.7943 44.3906 24.3203 44.3906C24.8151 44.3906 25.2474 44.4948 25.6172 44.7031C25.9922 44.9115 26.3099 45.2083 26.5703 45.5938C26.8359 45.974 27.0495 46.4245 27.2109 46.9453C27.3724 47.4609 27.4896 48.026 27.5625 48.6406V49C27.4896 49.5885 27.3724 50.1354 27.2109 50.6406C27.0495 51.1458 26.8359 51.5885 26.5703 51.9688C26.3099 52.3438 25.9922 52.6354 25.6172 52.8438C25.2422 53.0521 24.8047 53.1562 24.3047 53.1562C23.7786 53.1562 23.3099 53.0495 22.8984 52.8359C22.4922 52.6224 22.1484 52.3229 21.8672 51.9375C21.5911 51.5521 21.3802 51.099 21.2344 50.5781C21.0885 50.0573 21.0156 49.4896 21.0156 48.875ZM23.2656 48.7109V48.875C23.2656 49.224 23.2917 49.5495 23.3438 49.8516C23.401 50.1536 23.4922 50.4219 23.6172 50.6562C23.7474 50.8854 23.9141 51.0651 24.1172 51.1953C24.3255 51.3203 24.5781 51.3828 24.875 51.3828C25.2604 51.3828 25.5781 51.2969 25.8281 51.125C26.0781 50.9479 26.2682 50.7057 26.3984 50.3984C26.5339 50.0911 26.612 49.737 26.6328 49.3359V48.3125C26.6172 47.9844 26.5703 47.6901 26.4922 47.4297C26.4193 47.1641 26.3099 46.9375 26.1641 46.75C26.0234 46.5625 25.8464 46.4167 25.6328 46.3125C25.4245 46.2083 25.1771 46.1562 24.8906 46.1562C24.599 46.1562 24.349 46.224 24.1406 46.3594C23.9323 46.4896 23.763 46.6693 23.6328 46.8984C23.5078 47.1276 23.4141 47.3984 23.3516 47.7109C23.2943 48.0182 23.2656 48.3516 23.2656 48.7109ZM35.7344 44.5469H37.7734V52.7188C37.7734 53.4896 37.6016 54.1432 37.2578 54.6797C36.9193 55.2214 36.4453 55.6302 35.8359 55.9062C35.2266 56.1875 34.5182 56.3281 33.7109 56.3281C33.3568 56.3281 32.9818 56.2812 32.5859 56.1875C32.1953 56.0938 31.8203 55.9479 31.4609 55.75C31.1068 55.5521 30.8099 55.3021 30.5703 55L31.5625 53.6719C31.8229 53.974 32.125 54.2083 32.4688 54.375C32.8125 54.5469 33.1927 54.6328 33.6094 54.6328C34.0156 54.6328 34.3594 54.5573 34.6406 54.4062C34.9219 54.2604 35.138 54.0443 35.2891 53.7578C35.4401 53.4766 35.5156 53.1354 35.5156 52.7344V46.5L35.7344 44.5469ZM30.0469 48.875V48.7109C30.0469 48.0651 30.125 47.4792 30.2812 46.9531C30.4427 46.4219 30.6693 45.9661 30.9609 45.5859C31.2578 45.2057 31.6172 44.9115 32.0391 44.7031C32.4609 44.4948 32.9375 44.3906 33.4688 44.3906C34.0312 44.3906 34.5026 44.4948 34.8828 44.7031C35.263 44.9115 35.5755 45.2083 35.8203 45.5938C36.0651 45.974 36.2552 46.4245 36.3906 46.9453C36.5312 47.4609 36.6406 48.026 36.7188 48.6406V49C36.6406 49.5885 36.5234 50.1354 36.3672 50.6406C36.2109 51.1458 36.0052 51.5885 35.75 51.9688C35.4948 52.3438 35.1771 52.6354 34.7969 52.8438C34.4219 53.0521 33.974 53.1562 33.4531 53.1562C32.9323 53.1562 32.4609 53.0495 32.0391 52.8359C31.6224 52.6224 31.2656 52.3229 30.9688 51.9375C30.6719 51.5521 30.4427 51.099 30.2812 50.5781C30.125 50.0573 30.0469 49.4896 30.0469 48.875ZM32.2969 48.7109V48.875C32.2969 49.224 32.3307 49.5495 32.3984 49.8516C32.4661 50.1536 32.5703 50.4219 32.7109 50.6562C32.8568 50.8854 33.0365 51.0651 33.25 51.1953C33.4688 51.3203 33.7266 51.3828 34.0234 51.3828C34.4349 51.3828 34.7708 51.2969 35.0312 51.125C35.2917 50.9479 35.487 50.7057 35.6172 50.3984C35.7474 50.0911 35.8229 49.737 35.8438 49.3359V48.3125C35.8333 47.9844 35.7891 47.6901 35.7109 47.4297C35.6328 47.1641 35.5234 46.9375 35.3828 46.75C35.2422 46.5625 35.0599 46.4167 34.8359 46.3125C34.612 46.2083 34.3464 46.1562 34.0391 46.1562C33.7422 46.1562 33.4844 46.224 33.2656 46.3594C33.0521 46.4896 32.8724 46.6693 32.7266 46.8984C32.5859 47.1276 32.4792 47.3984 32.4062 47.7109C32.3333 48.0182 32.2969 48.3516 32.2969 48.7109ZM41.8984 44.5469V53H39.6406V44.5469H41.8984ZM39.5 42.3438C39.5 42.0156 39.6146 41.7448 39.8438 41.5312C40.0729 41.3177 40.3802 41.2109 40.7656 41.2109C41.1458 41.2109 41.4505 41.3177 41.6797 41.5312C41.9141 41.7448 42.0312 42.0156 42.0312 42.3438C42.0312 42.6719 41.9141 42.9427 41.6797 43.1562C41.4505 43.3698 41.1458 43.4766 40.7656 43.4766C40.3802 43.4766 40.0729 43.3698 39.8438 43.1562C39.6146 42.9427 39.5 42.6719 39.5 42.3438ZM45.9609 46.3516V53H43.7109V44.5469H45.8203L45.9609 46.3516ZM45.6328 48.4766H45.0234C45.0234 47.8516 45.1042 47.2891 45.2656 46.7891C45.4271 46.2839 45.6536 45.8542 45.9453 45.5C46.237 45.1406 46.5833 44.8672 46.9844 44.6797C47.3906 44.487 47.8438 44.3906 48.3438 44.3906C48.7396 44.3906 49.1016 44.4479 49.4297 44.5625C49.7578 44.6771 50.0391 44.8594 50.2734 45.1094C50.513 45.3594 50.6953 45.6901 50.8203 46.1016C50.9505 46.513 51.0156 47.0156 51.0156 47.6094V53H48.75V47.6016C48.75 47.2266 48.6979 46.9349 48.5938 46.7266C48.4896 46.5182 48.3359 46.3724 48.1328 46.2891C47.9349 46.2005 47.6901 46.1562 47.3984 46.1562C47.0964 46.1562 46.8333 46.2161 46.6094 46.3359C46.3906 46.4557 46.2083 46.6224 46.0625 46.8359C45.9219 47.0443 45.8151 47.2891 45.7422 47.5703C45.6693 47.8516 45.6328 48.1536 45.6328 48.4766ZM58.0781 44.5469H60.1172V52.7188C60.1172 53.4896 59.9453 54.1432 59.6016 54.6797C59.263 55.2214 58.7891 55.6302 58.1797 55.9062C57.5703 56.1875 56.862 56.3281 56.0547 56.3281C55.7005 56.3281 55.3255 56.2812 54.9297 56.1875C54.5391 56.0938 54.1641 55.9479 53.8047 55.75C53.4505 55.5521 53.1536 55.3021 52.9141 55L53.9062 53.6719C54.1667 53.974 54.4688 54.2083 54.8125 54.375C55.1562 54.5469 55.5365 54.6328 55.9531 54.6328C56.3594 54.6328 56.7031 54.5573 56.9844 54.4062C57.2656 54.2604 57.4818 54.0443 57.6328 53.7578C57.7839 53.4766 57.8594 53.1354 57.8594 52.7344V46.5L58.0781 44.5469ZM52.3906 48.875V48.7109C52.3906 48.0651 52.4688 47.4792 52.625 46.9531C52.7865 46.4219 53.013 45.9661 53.3047 45.5859C53.6016 45.2057 53.9609 44.9115 54.3828 44.7031C54.8047 44.4948 55.2812 44.3906 55.8125 44.3906C56.375 44.3906 56.8464 44.4948 57.2266 44.7031C57.6068 44.9115 57.9193 45.2083 58.1641 45.5938C58.4089 45.974 58.599 46.4245 58.7344 46.9453C58.875 47.4609 58.9844 48.026 59.0625 48.6406V49C58.9844 49.5885 58.8672 50.1354 58.7109 50.6406C58.5547 51.1458 58.349 51.5885 58.0938 51.9688C57.8385 52.3438 57.5208 52.6354 57.1406 52.8438C56.7656 53.0521 56.3177 53.1562 55.7969 53.1562C55.276 53.1562 54.8047 53.0495 54.3828 52.8359C53.9661 52.6224 53.6094 52.3229 53.3125 51.9375C53.0156 51.5521 52.7865 51.099 52.625 50.5781C52.4688 50.0573 52.3906 49.4896 52.3906 48.875ZM54.6406 48.7109V48.875C54.6406 49.224 54.6745 49.5495 54.7422 49.8516C54.8099 50.1536 54.9141 50.4219 55.0547 50.6562C55.2005 50.8854 55.3802 51.0651 55.5938 51.1953C55.8125 51.3203 56.0703 51.3828 56.3672 51.3828C56.7786 51.3828 57.1146 51.2969 57.375 51.125C57.6354 50.9479 57.8307 50.7057 57.9609 50.3984C58.0911 50.0911 58.1667 49.737 58.1875 49.3359V48.3125C58.1771 47.9844 58.1328 47.6901 58.0547 47.4297C57.9766 47.1641 57.8672 46.9375 57.7266 46.75C57.5859 46.5625 57.4036 46.4167 57.1797 46.3125C56.9557 46.2083 56.6901 46.1562 56.3828 46.1562C56.0859 46.1562 55.8281 46.224 55.6094 46.3594C55.3958 46.4896 55.2161 46.6693 55.0703 46.8984C54.9297 47.1276 54.8229 47.3984 54.75 47.7109C54.6771 48.0182 54.6406 48.3516 54.6406 48.7109ZM68.3359 41.625V53H65.9922V41.625H68.3359ZM75.1484 41.625L70.6406 47.2422L68.0391 50.0391L67.6172 47.8203L69.375 45.4141L72.2734 41.625H75.1484ZM72.4844 53L69.1328 47.7422L70.8672 46.2891L75.2578 53H72.4844ZM78.1641 46.3516V53H75.9141V44.5469H78.0234L78.1641 46.3516ZM77.8359 48.4766H77.2266C77.2266 47.8516 77.3073 47.2891 77.4688 46.7891C77.6302 46.2839 77.8568 45.8542 78.1484 45.5C78.4401 45.1406 78.7865 44.8672 79.1875 44.6797C79.5938 44.487 80.0469 44.3906 80.5469 44.3906C80.9427 44.3906 81.3047 44.4479 81.6328 44.5625C81.9609 44.6771 82.2422 44.8594 82.4766 45.1094C82.7161 45.3594 82.8984 45.6901 83.0234 46.1016C83.1536 46.513 83.2188 47.0156 83.2188 47.6094V53H80.9531V47.6016C80.9531 47.2266 80.901 46.9349 80.7969 46.7266C80.6927 46.5182 80.5391 46.3724 80.3359 46.2891C80.138 46.2005 79.8932 46.1562 79.6016 46.1562C79.2995 46.1562 79.0365 46.2161 78.8125 46.3359C78.5938 46.4557 78.4115 46.6224 78.2656 46.8359C78.125 47.0443 78.0182 47.2891 77.9453 47.5703C77.8724 47.8516 77.8359 48.1536 77.8359 48.4766ZM84.5703 48.8594V48.6953C84.5703 48.0755 84.6589 47.5052 84.8359 46.9844C85.013 46.4583 85.2708 46.0026 85.6094 45.6172C85.9479 45.2318 86.3646 44.9323 86.8594 44.7188C87.3542 44.5 87.9219 44.3906 88.5625 44.3906C89.2031 44.3906 89.7734 44.5 90.2734 44.7188C90.7734 44.9323 91.1927 45.2318 91.5312 45.6172C91.875 46.0026 92.1354 46.4583 92.3125 46.9844C92.4896 47.5052 92.5781 48.0755 92.5781 48.6953V48.8594C92.5781 49.474 92.4896 50.0443 92.3125 50.5703C92.1354 51.0911 91.875 51.5469 91.5312 51.9375C91.1927 52.3229 90.776 52.6224 90.2812 52.8359C89.7865 53.0495 89.2188 53.1562 88.5781 53.1562C87.9375 53.1562 87.3672 53.0495 86.8672 52.8359C86.3724 52.6224 85.9531 52.3229 85.6094 51.9375C85.2708 51.5469 85.013 51.0911 84.8359 50.5703C84.6589 50.0443 84.5703 49.474 84.5703 48.8594ZM86.8203 48.6953V48.8594C86.8203 49.2135 86.8516 49.5443 86.9141 49.8516C86.9766 50.1589 87.0755 50.4297 87.2109 50.6641C87.3516 50.8932 87.5339 51.0729 87.7578 51.2031C87.9818 51.3333 88.2552 51.3984 88.5781 51.3984C88.8906 51.3984 89.1589 51.3333 89.3828 51.2031C89.6068 51.0729 89.7865 50.8932 89.9219 50.6641C90.0573 50.4297 90.1562 50.1589 90.2188 49.8516C90.2865 49.5443 90.3203 49.2135 90.3203 48.8594V48.6953C90.3203 48.3516 90.2865 48.0286 90.2188 47.7266C90.1562 47.4193 90.0547 47.1484 89.9141 46.9141C89.7786 46.6745 89.599 46.487 89.375 46.3516C89.151 46.2161 88.8802 46.1484 88.5625 46.1484C88.2448 46.1484 87.974 46.2161 87.75 46.3516C87.5312 46.487 87.3516 46.6745 87.2109 46.9141C87.0755 47.1484 86.9766 47.4193 86.9141 47.7266C86.8516 48.0286 86.8203 48.3516 86.8203 48.6953ZM96.375 50.8125L98.1328 44.5469H99.5625L99.1016 47.0078L97.3438 53H96.1484L96.375 50.8125ZM95.4844 44.5469L96.7422 50.8047L96.8594 53H95.4531L93.3125 44.5469H95.4844ZM101.172 50.7031L102.398 44.5469H104.578L102.438 53H101.039L101.172 50.7031ZM99.7578 44.5469L101.508 50.7656L101.75 53H100.547L98.7891 47.0156L98.3438 44.5469H99.7578ZM108.086 41V53H105.828V41H108.086ZM113.836 53.1562C113.18 53.1562 112.591 53.0521 112.07 52.8438C111.549 52.6302 111.107 52.3359 110.742 51.9609C110.383 51.5859 110.107 51.151 109.914 50.6562C109.721 50.1562 109.625 49.625 109.625 49.0625V48.75C109.625 48.1094 109.716 47.5234 109.898 46.9922C110.081 46.4609 110.341 46 110.68 45.6094C111.023 45.2188 111.44 44.9193 111.93 44.7109C112.419 44.4974 112.971 44.3906 113.586 44.3906C114.185 44.3906 114.716 44.4896 115.18 44.6875C115.643 44.8854 116.031 45.1667 116.344 45.5312C116.661 45.8958 116.901 46.3333 117.062 46.8438C117.224 47.349 117.305 47.9115 117.305 48.5312V49.4688H110.586V47.9688H115.094V47.7969C115.094 47.4844 115.036 47.2057 114.922 46.9609C114.812 46.7109 114.646 46.513 114.422 46.3672C114.198 46.2214 113.911 46.1484 113.562 46.1484C113.266 46.1484 113.01 46.2135 112.797 46.3438C112.583 46.474 112.409 46.6562 112.273 46.8906C112.143 47.125 112.044 47.401 111.977 47.7188C111.914 48.0312 111.883 48.375 111.883 48.75V49.0625C111.883 49.401 111.93 49.7135 112.023 50C112.122 50.2865 112.26 50.5339 112.438 50.7422C112.62 50.9505 112.839 51.112 113.094 51.2266C113.354 51.3411 113.648 51.3984 113.977 51.3984C114.383 51.3984 114.76 51.3203 115.109 51.1641C115.464 51.0026 115.768 50.7604 116.023 50.4375L117.117 51.625C116.94 51.8802 116.698 52.125 116.391 52.3594C116.089 52.5938 115.724 52.7865 115.297 52.9375C114.87 53.0833 114.383 53.1562 113.836 53.1562ZM123.578 51.1562V41H125.844V53H123.805L123.578 51.1562ZM118.234 48.875V48.7109C118.234 48.0651 118.307 47.4792 118.453 46.9531C118.599 46.4219 118.812 45.9661 119.094 45.5859C119.375 45.2057 119.721 44.9115 120.133 44.7031C120.544 44.4948 121.013 44.3906 121.539 44.3906C122.034 44.3906 122.466 44.4948 122.836 44.7031C123.211 44.9115 123.529 45.2083 123.789 45.5938C124.055 45.974 124.268 46.4245 124.43 46.9453C124.591 47.4609 124.708 48.026 124.781 48.6406V49C124.708 49.5885 124.591 50.1354 124.43 50.6406C124.268 51.1458 124.055 51.5885 123.789 51.9688C123.529 52.3438 123.211 52.6354 122.836 52.8438C122.461 53.0521 122.023 53.1562 121.523 53.1562C120.997 53.1562 120.529 53.0495 120.117 52.8359C119.711 52.6224 119.367 52.3229 119.086 51.9375C118.81 51.5521 118.599 51.099 118.453 50.5781C118.307 50.0573 118.234 49.4896 118.234 48.875ZM120.484 48.7109V48.875C120.484 49.224 120.51 49.5495 120.562 49.8516C120.62 50.1536 120.711 50.4219 120.836 50.6562C120.966 50.8854 121.133 51.0651 121.336 51.1953C121.544 51.3203 121.797 51.3828 122.094 51.3828C122.479 51.3828 122.797 51.2969 123.047 51.125C123.297 50.9479 123.487 50.7057 123.617 50.3984C123.753 50.0911 123.831 49.737 123.852 49.3359V48.3125C123.836 47.9844 123.789 47.6901 123.711 47.4297C123.638 47.1641 123.529 46.9375 123.383 46.75C123.242 46.5625 123.065 46.4167 122.852 46.3125C122.643 46.2083 122.396 46.1562 122.109 46.1562C121.818 46.1562 121.568 46.224 121.359 46.3594C121.151 46.4896 120.982 46.6693 120.852 46.8984C120.727 47.1276 120.633 47.3984 120.57 47.7109C120.513 48.0182 120.484 48.3516 120.484 48.7109ZM132.953 44.5469H134.992V52.7188C134.992 53.4896 134.82 54.1432 134.477 54.6797C134.138 55.2214 133.664 55.6302 133.055 55.9062C132.445 56.1875 131.737 56.3281 130.93 56.3281C130.576 56.3281 130.201 56.2812 129.805 56.1875C129.414 56.0938 129.039 55.9479 128.68 55.75C128.326 55.5521 128.029 55.3021 127.789 55L128.781 53.6719C129.042 53.974 129.344 54.2083 129.688 54.375C130.031 54.5469 130.411 54.6328 130.828 54.6328C131.234 54.6328 131.578 54.5573 131.859 54.4062C132.141 54.2604 132.357 54.0443 132.508 53.7578C132.659 53.4766 132.734 53.1354 132.734 52.7344V46.5L132.953 44.5469ZM127.266 48.875V48.7109C127.266 48.0651 127.344 47.4792 127.5 46.9531C127.661 46.4219 127.888 45.9661 128.18 45.5859C128.477 45.2057 128.836 44.9115 129.258 44.7031C129.68 44.4948 130.156 44.3906 130.688 44.3906C131.25 44.3906 131.721 44.4948 132.102 44.7031C132.482 44.9115 132.794 45.2083 133.039 45.5938C133.284 45.974 133.474 46.4245 133.609 46.9453C133.75 47.4609 133.859 48.026 133.938 48.6406V49C133.859 49.5885 133.742 50.1354 133.586 50.6406C133.43 51.1458 133.224 51.5885 132.969 51.9688C132.714 52.3438 132.396 52.6354 132.016 52.8438C131.641 53.0521 131.193 53.1562 130.672 53.1562C130.151 53.1562 129.68 53.0495 129.258 52.8359C128.841 52.6224 128.484 52.3229 128.188 51.9375C127.891 51.5521 127.661 51.099 127.5 50.5781C127.344 50.0573 127.266 49.4896 127.266 48.875ZM129.516 48.7109V48.875C129.516 49.224 129.549 49.5495 129.617 49.8516C129.685 50.1536 129.789 50.4219 129.93 50.6562C130.076 50.8854 130.255 51.0651 130.469 51.1953C130.688 51.3203 130.945 51.3828 131.242 51.3828C131.654 51.3828 131.99 51.2969 132.25 51.125C132.51 50.9479 132.706 50.7057 132.836 50.3984C132.966 50.0911 133.042 49.737 133.062 49.3359V48.3125C133.052 47.9844 133.008 47.6901 132.93 47.4297C132.852 47.1641 132.742 46.9375 132.602 46.75C132.461 46.5625 132.279 46.4167 132.055 46.3125C131.831 46.2083 131.565 46.1562 131.258 46.1562C130.961 46.1562 130.703 46.224 130.484 46.3594C130.271 46.4896 130.091 46.6693 129.945 46.8984C129.805 47.1276 129.698 47.3984 129.625 47.7109C129.552 48.0182 129.516 48.3516 129.516 48.7109ZM140.633 53.1562C139.977 53.1562 139.388 53.0521 138.867 52.8438C138.346 52.6302 137.904 52.3359 137.539 51.9609C137.18 51.5859 136.904 51.151 136.711 50.6562C136.518 50.1562 136.422 49.625 136.422 49.0625V48.75C136.422 48.1094 136.513 47.5234 136.695 46.9922C136.878 46.4609 137.138 46 137.477 45.6094C137.82 45.2188 138.237 44.9193 138.727 44.7109C139.216 44.4974 139.768 44.3906 140.383 44.3906C140.982 44.3906 141.513 44.4896 141.977 44.6875C142.44 44.8854 142.828 45.1667 143.141 45.5312C143.458 45.8958 143.698 46.3333 143.859 46.8438C144.021 47.349 144.102 47.9115 144.102 48.5312V49.4688H137.383V47.9688H141.891V47.7969C141.891 47.4844 141.833 47.2057 141.719 46.9609C141.609 46.7109 141.443 46.513 141.219 46.3672C140.995 46.2214 140.708 46.1484 140.359 46.1484C140.062 46.1484 139.807 46.2135 139.594 46.3438C139.38 46.474 139.206 46.6562 139.07 46.8906C138.94 47.125 138.841 47.401 138.773 47.7188C138.711 48.0312 138.68 48.375 138.68 48.75V49.0625C138.68 49.401 138.727 49.7135 138.82 50C138.919 50.2865 139.057 50.5339 139.234 50.7422C139.417 50.9505 139.635 51.112 139.891 51.2266C140.151 51.3411 140.445 51.3984 140.773 51.3984C141.18 51.3984 141.557 51.3203 141.906 51.1641C142.26 51.0026 142.565 50.7604 142.82 50.4375L143.914 51.625C143.737 51.8802 143.495 52.125 143.188 52.3594C142.885 52.5938 142.521 52.7865 142.094 52.9375C141.667 53.0833 141.18 53.1562 140.633 53.1562ZM147.516 51.1016L147.508 52.6094C147.508 53.1875 147.362 53.7708 147.07 54.3594C146.784 54.9479 146.419 55.4297 145.977 55.8047L144.805 55.2031C144.935 54.9635 145.062 54.724 145.188 54.4844C145.312 54.2448 145.417 53.9818 145.5 53.6953C145.583 53.4089 145.625 53.0833 145.625 52.7188V51.1016H147.516ZM157.898 48.0078H154.977L154.961 46.3984H157.414C157.846 46.3984 158.201 46.3438 158.477 46.2344C158.753 46.1198 158.958 45.9557 159.094 45.7422C159.234 45.5234 159.305 45.2578 159.305 44.9453C159.305 44.5911 159.237 44.3047 159.102 44.0859C158.971 43.8672 158.766 43.7083 158.484 43.6094C158.208 43.5104 157.852 43.4609 157.414 43.4609H155.789V53H153.445V41.625H157.414C158.076 41.625 158.667 41.6875 159.188 41.8125C159.714 41.9375 160.159 42.1276 160.523 42.3828C160.888 42.638 161.167 42.9609 161.359 43.3516C161.552 43.737 161.648 44.1953 161.648 44.7266C161.648 45.1953 161.542 45.6276 161.328 46.0234C161.12 46.4193 160.789 46.7422 160.336 46.9922C159.888 47.2422 159.302 47.3802 158.578 47.4062L157.898 48.0078ZM157.797 53H154.336L155.25 51.1719H157.797C158.208 51.1719 158.544 51.1068 158.805 50.9766C159.065 50.8411 159.258 50.6589 159.383 50.4297C159.508 50.2005 159.57 49.9375 159.57 49.6406C159.57 49.3073 159.513 49.0182 159.398 48.7734C159.289 48.5286 159.112 48.3411 158.867 48.2109C158.622 48.0755 158.299 48.0078 157.898 48.0078H155.641L155.656 46.3984H158.469L159.008 47.0312C159.701 47.0208 160.258 47.1432 160.68 47.3984C161.107 47.6484 161.417 47.974 161.609 48.375C161.807 48.776 161.906 49.2057 161.906 49.6641C161.906 50.3932 161.747 51.0078 161.43 51.5078C161.112 52.0026 160.646 52.375 160.031 52.625C159.422 52.875 158.677 53 157.797 53ZM168.523 50.9766V44.5469H170.773V53H168.656L168.523 50.9766ZM168.773 49.2422L169.438 49.2266C169.438 49.7891 169.372 50.3125 169.242 50.7969C169.112 51.276 168.917 51.6927 168.656 52.0469C168.396 52.3958 168.068 52.6693 167.672 52.8672C167.276 53.0599 166.81 53.1562 166.273 53.1562C165.862 53.1562 165.482 53.099 165.133 52.9844C164.789 52.8646 164.492 52.6797 164.242 52.4297C163.997 52.1745 163.805 51.849 163.664 51.4531C163.529 51.0521 163.461 50.5703 163.461 50.0078V44.5469H165.711V50.0234C165.711 50.2734 165.74 50.4844 165.797 50.6562C165.859 50.8281 165.945 50.9688 166.055 51.0781C166.164 51.1875 166.292 51.2656 166.438 51.3125C166.589 51.3594 166.755 51.3828 166.938 51.3828C167.401 51.3828 167.766 51.2891 168.031 51.1016C168.302 50.9141 168.492 50.6589 168.602 50.3359C168.716 50.0078 168.773 49.6432 168.773 49.2422ZM174.867 44.5469V53H172.609V44.5469H174.867ZM172.469 42.3438C172.469 42.0156 172.583 41.7448 172.812 41.5312C173.042 41.3177 173.349 41.2109 173.734 41.2109C174.115 41.2109 174.419 41.3177 174.648 41.5312C174.883 41.7448 175 42.0156 175 42.3438C175 42.6719 174.883 42.9427 174.648 43.1562C174.419 43.3698 174.115 43.4766 173.734 43.4766C173.349 43.4766 173.042 43.3698 172.812 43.1562C172.583 42.9427 172.469 42.6719 172.469 42.3438ZM179.102 41V53H176.844V41H179.102ZM185.953 51.1562V41H188.219V53H186.18L185.953 51.1562ZM180.609 48.875V48.7109C180.609 48.0651 180.682 47.4792 180.828 46.9531C180.974 46.4219 181.188 45.9661 181.469 45.5859C181.75 45.2057 182.096 44.9115 182.508 44.7031C182.919 44.4948 183.388 44.3906 183.914 44.3906C184.409 44.3906 184.841 44.4948 185.211 44.7031C185.586 44.9115 185.904 45.2083 186.164 45.5938C186.43 45.974 186.643 46.4245 186.805 46.9453C186.966 47.4609 187.083 48.026 187.156 48.6406V49C187.083 49.5885 186.966 50.1354 186.805 50.6406C186.643 51.1458 186.43 51.5885 186.164 51.9688C185.904 52.3438 185.586 52.6354 185.211 52.8438C184.836 53.0521 184.398 53.1562 183.898 53.1562C183.372 53.1562 182.904 53.0495 182.492 52.8359C182.086 52.6224 181.742 52.3229 181.461 51.9375C181.185 51.5521 180.974 51.099 180.828 50.5781C180.682 50.0573 180.609 49.4896 180.609 48.875ZM182.859 48.7109V48.875C182.859 49.224 182.885 49.5495 182.938 49.8516C182.995 50.1536 183.086 50.4219 183.211 50.6562C183.341 50.8854 183.508 51.0651 183.711 51.1953C183.919 51.3203 184.172 51.3828 184.469 51.3828C184.854 51.3828 185.172 51.2969 185.422 51.125C185.672 50.9479 185.862 50.7057 185.992 50.3984C186.128 50.0911 186.206 49.737 186.227 49.3359V48.3125C186.211 47.9844 186.164 47.6901 186.086 47.4297C186.013 47.1641 185.904 46.9375 185.758 46.75C185.617 46.5625 185.44 46.4167 185.227 46.3125C185.018 46.2083 184.771 46.1562 184.484 46.1562C184.193 46.1562 183.943 46.224 183.734 46.3594C183.526 46.4896 183.357 46.6693 183.227 46.8984C183.102 47.1276 183.008 47.3984 182.945 47.7109C182.888 48.0182 182.859 48.3516 182.859 48.7109ZM192.352 44.5469V53H190.094V44.5469H192.352ZM189.953 42.3438C189.953 42.0156 190.068 41.7448 190.297 41.5312C190.526 41.3177 190.833 41.2109 191.219 41.2109C191.599 41.2109 191.904 41.3177 192.133 41.5312C192.367 41.7448 192.484 42.0156 192.484 42.3438C192.484 42.6719 192.367 42.9427 192.133 43.1562C191.904 43.3698 191.599 43.4766 191.219 43.4766C190.833 43.4766 190.526 43.3698 190.297 43.1562C190.068 42.9427 189.953 42.6719 189.953 42.3438ZM196.414 46.3516V53H194.164V44.5469H196.273L196.414 46.3516ZM196.086 48.4766H195.477C195.477 47.8516 195.557 47.2891 195.719 46.7891C195.88 46.2839 196.107 45.8542 196.398 45.5C196.69 45.1406 197.036 44.8672 197.438 44.6797C197.844 44.487 198.297 44.3906 198.797 44.3906C199.193 44.3906 199.555 44.4479 199.883 44.5625C200.211 44.6771 200.492 44.8594 200.727 45.1094C200.966 45.3594 201.148 45.6901 201.273 46.1016C201.404 46.513 201.469 47.0156 201.469 47.6094V53H199.203V47.6016C199.203 47.2266 199.151 46.9349 199.047 46.7266C198.943 46.5182 198.789 46.3724 198.586 46.2891C198.388 46.2005 198.143 46.1562 197.852 46.1562C197.549 46.1562 197.286 46.2161 197.062 46.3359C196.844 46.4557 196.661 46.6224 196.516 46.8359C196.375 47.0443 196.268 47.2891 196.195 47.5703C196.122 47.8516 196.086 48.1536 196.086 48.4766ZM208.531 44.5469H210.57V52.7188C210.57 53.4896 210.398 54.1432 210.055 54.6797C209.716 55.2214 209.242 55.6302 208.633 55.9062C208.023 56.1875 207.315 56.3281 206.508 56.3281C206.154 56.3281 205.779 56.2812 205.383 56.1875C204.992 56.0938 204.617 55.9479 204.258 55.75C203.904 55.5521 203.607 55.3021 203.367 55L204.359 53.6719C204.62 53.974 204.922 54.2083 205.266 54.375C205.609 54.5469 205.99 54.6328 206.406 54.6328C206.812 54.6328 207.156 54.5573 207.438 54.4062C207.719 54.2604 207.935 54.0443 208.086 53.7578C208.237 53.4766 208.312 53.1354 208.312 52.7344V46.5L208.531 44.5469ZM202.844 48.875V48.7109C202.844 48.0651 202.922 47.4792 203.078 46.9531C203.24 46.4219 203.466 45.9661 203.758 45.5859C204.055 45.2057 204.414 44.9115 204.836 44.7031C205.258 44.4948 205.734 44.3906 206.266 44.3906C206.828 44.3906 207.299 44.4948 207.68 44.7031C208.06 44.9115 208.372 45.2083 208.617 45.5938C208.862 45.974 209.052 46.4245 209.188 46.9453C209.328 47.4609 209.438 48.026 209.516 48.6406V49C209.438 49.5885 209.32 50.1354 209.164 50.6406C209.008 51.1458 208.802 51.5885 208.547 51.9688C208.292 52.3438 207.974 52.6354 207.594 52.8438C207.219 53.0521 206.771 53.1562 206.25 53.1562C205.729 53.1562 205.258 53.0495 204.836 52.8359C204.419 52.6224 204.062 52.3229 203.766 51.9375C203.469 51.5521 203.24 51.099 203.078 50.5781C202.922 50.0573 202.844 49.4896 202.844 48.875ZM205.094 48.7109V48.875C205.094 49.224 205.128 49.5495 205.195 49.8516C205.263 50.1536 205.367 50.4219 205.508 50.6562C205.654 50.8854 205.833 51.0651 206.047 51.1953C206.266 51.3203 206.523 51.3828 206.82 51.3828C207.232 51.3828 207.568 51.2969 207.828 51.125C208.089 50.9479 208.284 50.7057 208.414 50.3984C208.544 50.0911 208.62 49.737 208.641 49.3359V48.3125C208.63 47.9844 208.586 47.6901 208.508 47.4297C208.43 47.1641 208.32 46.9375 208.18 46.75C208.039 46.5625 207.857 46.4167 207.633 46.3125C207.409 46.2083 207.143 46.1562 206.836 46.1562C206.539 46.1562 206.281 46.224 206.062 46.3594C205.849 46.4896 205.669 46.6693 205.523 46.8984C205.383 47.1276 205.276 47.3984 205.203 47.7109C205.13 48.0182 205.094 48.3516 205.094 48.7109ZM219.938 53H217.461L217.477 51.1719H219.938C220.552 51.1719 221.07 51.0339 221.492 50.7578C221.914 50.4766 222.232 50.0677 222.445 49.5312C222.664 48.9948 222.773 48.3464 222.773 47.5859V47.0312C222.773 46.4479 222.711 45.9349 222.586 45.4922C222.466 45.0495 222.286 44.6771 222.047 44.375C221.807 44.0729 221.513 43.8464 221.164 43.6953C220.815 43.5391 220.414 43.4609 219.961 43.4609H217.414V41.625H219.961C220.721 41.625 221.417 41.7552 222.047 42.0156C222.682 42.2708 223.232 42.638 223.695 43.1172C224.159 43.5964 224.516 44.1693 224.766 44.8359C225.021 45.4974 225.148 46.2344 225.148 47.0469V47.5859C225.148 48.3932 225.021 49.1302 224.766 49.7969C224.516 50.4635 224.159 51.0365 223.695 51.5156C223.237 51.9896 222.688 52.3568 222.047 52.6172C221.411 52.8724 220.708 53 219.938 53ZM218.789 41.625V53H216.445V41.625H218.789ZM228.961 46.3906V53H226.711V44.5469H228.828L228.961 46.3906ZM231.508 44.4922L231.469 46.5781C231.359 46.5625 231.227 46.5495 231.07 46.5391C230.919 46.5234 230.781 46.5156 230.656 46.5156C230.339 46.5156 230.062 46.5573 229.828 46.6406C229.599 46.7188 229.406 46.8359 229.25 46.9922C229.099 47.1484 228.984 47.3385 228.906 47.5625C228.833 47.7865 228.792 48.0417 228.781 48.3281L228.328 48.1875C228.328 47.6406 228.383 47.138 228.492 46.6797C228.602 46.2161 228.76 45.8125 228.969 45.4688C229.182 45.125 229.443 44.8594 229.75 44.6719C230.057 44.4844 230.409 44.3906 230.805 44.3906C230.93 44.3906 231.057 44.401 231.188 44.4219C231.318 44.4375 231.424 44.4609 231.508 44.4922ZM236.305 53.1562C235.648 53.1562 235.06 53.0521 234.539 52.8438C234.018 52.6302 233.576 52.3359 233.211 51.9609C232.852 51.5859 232.576 51.151 232.383 50.6562C232.19 50.1562 232.094 49.625 232.094 49.0625V48.75C232.094 48.1094 232.185 47.5234 232.367 46.9922C232.549 46.4609 232.81 46 233.148 45.6094C233.492 45.2188 233.909 44.9193 234.398 44.7109C234.888 44.4974 235.44 44.3906 236.055 44.3906C236.654 44.3906 237.185 44.4896 237.648 44.6875C238.112 44.8854 238.5 45.1667 238.812 45.5312C239.13 45.8958 239.37 46.3333 239.531 46.8438C239.693 47.349 239.773 47.9115 239.773 48.5312V49.4688H233.055V47.9688H237.562V47.7969C237.562 47.4844 237.505 47.2057 237.391 46.9609C237.281 46.7109 237.115 46.513 236.891 46.3672C236.667 46.2214 236.38 46.1484 236.031 46.1484C235.734 46.1484 235.479 46.2135 235.266 46.3438C235.052 46.474 234.878 46.6562 234.742 46.8906C234.612 47.125 234.513 47.401 234.445 47.7188C234.383 48.0312 234.352 48.375 234.352 48.75V49.0625C234.352 49.401 234.398 49.7135 234.492 50C234.591 50.2865 234.729 50.5339 234.906 50.7422C235.089 50.9505 235.307 51.112 235.562 51.2266C235.823 51.3411 236.117 51.3984 236.445 51.3984C236.852 51.3984 237.229 51.3203 237.578 51.1641C237.932 51.0026 238.237 50.7604 238.492 50.4375L239.586 51.625C239.409 51.8802 239.167 52.125 238.859 52.3594C238.557 52.5938 238.193 52.7865 237.766 52.9375C237.339 53.0833 236.852 53.1562 236.305 53.1562ZM245.617 51.0938V47.3281C245.617 47.0573 245.573 46.8255 245.484 46.6328C245.396 46.4349 245.258 46.2812 245.07 46.1719C244.888 46.0625 244.651 46.0078 244.359 46.0078C244.109 46.0078 243.893 46.0521 243.711 46.1406C243.529 46.224 243.388 46.3464 243.289 46.5078C243.19 46.6641 243.141 46.849 243.141 47.0625H240.891C240.891 46.7031 240.974 46.362 241.141 46.0391C241.307 45.7161 241.549 45.4323 241.867 45.1875C242.185 44.9375 242.562 44.7422 243 44.6016C243.443 44.4609 243.938 44.3906 244.484 44.3906C245.141 44.3906 245.724 44.5 246.234 44.7188C246.745 44.9375 247.146 45.2656 247.438 45.7031C247.734 46.1406 247.883 46.6875 247.883 47.3438V50.9609C247.883 51.4245 247.911 51.8047 247.969 52.1016C248.026 52.3932 248.109 52.6484 248.219 52.8672V53H245.945C245.836 52.7708 245.753 52.4844 245.695 52.1406C245.643 51.7917 245.617 51.4427 245.617 51.0938ZM245.914 47.8516L245.93 49.125H244.672C244.375 49.125 244.117 49.1589 243.898 49.2266C243.68 49.2943 243.5 49.3906 243.359 49.5156C243.219 49.6354 243.115 49.776 243.047 49.9375C242.984 50.099 242.953 50.276 242.953 50.4688C242.953 50.6615 242.997 50.8359 243.086 50.9922C243.174 51.1432 243.302 51.263 243.469 51.3516C243.635 51.4349 243.831 51.4766 244.055 51.4766C244.393 51.4766 244.688 51.4089 244.938 51.2734C245.188 51.138 245.38 50.9714 245.516 50.7734C245.656 50.5755 245.729 50.388 245.734 50.2109L246.328 51.1641C246.245 51.3776 246.13 51.599 245.984 51.8281C245.844 52.0573 245.664 52.2734 245.445 52.4766C245.227 52.6745 244.964 52.8385 244.656 52.9688C244.349 53.0938 243.984 53.1562 243.562 53.1562C243.026 53.1562 242.539 53.0495 242.102 52.8359C241.669 52.6172 241.326 52.3177 241.07 51.9375C240.82 51.5521 240.695 51.1146 240.695 50.625C240.695 50.1823 240.779 49.7891 240.945 49.4453C241.112 49.1016 241.357 48.8125 241.68 48.5781C242.008 48.3385 242.417 48.1589 242.906 48.0391C243.396 47.9141 243.964 47.8516 244.609 47.8516H245.914ZM251.867 46.2969V53H249.609V44.5469H251.727L251.867 46.2969ZM251.555 48.4766H250.93C250.93 47.888 251 47.3464 251.141 46.8516C251.286 46.3516 251.497 45.9193 251.773 45.5547C252.055 45.1849 252.401 44.8984 252.812 44.6953C253.224 44.4922 253.701 44.3906 254.242 44.3906C254.617 44.3906 254.961 44.4479 255.273 44.5625C255.586 44.6719 255.854 44.8464 256.078 45.0859C256.307 45.3203 256.484 45.6276 256.609 46.0078C256.734 46.3828 256.797 46.8333 256.797 47.3594V53H254.547V47.6094C254.547 47.224 254.495 46.9271 254.391 46.7188C254.286 46.5104 254.138 46.3646 253.945 46.2812C253.758 46.1979 253.531 46.1562 253.266 46.1562C252.974 46.1562 252.719 46.2161 252.5 46.3359C252.286 46.4557 252.109 46.6224 251.969 46.8359C251.828 47.0443 251.724 47.2891 251.656 47.5703C251.589 47.8516 251.555 48.1536 251.555 48.4766ZM256.586 48.2188L255.781 48.3203C255.781 47.7682 255.849 47.2552 255.984 46.7812C256.125 46.3073 256.331 45.8906 256.602 45.5312C256.878 45.1719 257.219 44.8932 257.625 44.6953C258.031 44.4922 258.5 44.3906 259.031 44.3906C259.438 44.3906 259.807 44.4505 260.141 44.5703C260.474 44.6849 260.758 44.8698 260.992 45.125C261.232 45.375 261.414 45.7031 261.539 46.1094C261.669 46.5156 261.734 47.013 261.734 47.6016V53H259.477V47.6016C259.477 47.2109 259.424 46.9141 259.32 46.7109C259.221 46.5026 259.076 46.3594 258.883 46.2812C258.695 46.1979 258.471 46.1562 258.211 46.1562C257.94 46.1562 257.703 46.2109 257.5 46.3203C257.297 46.4245 257.128 46.5703 256.992 46.7578C256.857 46.9453 256.755 47.1641 256.688 47.4141C256.62 47.6589 256.586 47.9271 256.586 48.2188ZM268.047 50.6641C268.047 50.5026 268 50.3568 267.906 50.2266C267.812 50.0964 267.638 49.9766 267.383 49.8672C267.133 49.7526 266.771 49.6484 266.297 49.5547C265.87 49.4609 265.471 49.3438 265.102 49.2031C264.737 49.0573 264.419 48.8828 264.148 48.6797C263.883 48.4766 263.674 48.237 263.523 47.9609C263.372 47.6797 263.297 47.3594 263.297 47C263.297 46.6458 263.372 46.3125 263.523 46C263.68 45.6875 263.901 45.4115 264.188 45.1719C264.479 44.9271 264.833 44.737 265.25 44.6016C265.672 44.4609 266.146 44.3906 266.672 44.3906C267.406 44.3906 268.036 44.5078 268.562 44.7422C269.094 44.9766 269.5 45.2995 269.781 45.7109C270.068 46.1172 270.211 46.5807 270.211 47.1016H267.961C267.961 46.8828 267.914 46.6875 267.82 46.5156C267.732 46.3385 267.591 46.2005 267.398 46.1016C267.211 45.9974 266.966 45.9453 266.664 45.9453C266.414 45.9453 266.198 45.9896 266.016 46.0781C265.833 46.1615 265.693 46.276 265.594 46.4219C265.5 46.5625 265.453 46.7188 265.453 46.8906C265.453 47.0208 265.479 47.138 265.531 47.2422C265.589 47.3411 265.68 47.4323 265.805 47.5156C265.93 47.599 266.091 47.6771 266.289 47.75C266.492 47.8177 266.742 47.8802 267.039 47.9375C267.648 48.0625 268.193 48.2266 268.672 48.4297C269.151 48.6276 269.531 48.8984 269.812 49.2422C270.094 49.5807 270.234 50.026 270.234 50.5781C270.234 50.9531 270.151 51.2969 269.984 51.6094C269.818 51.9219 269.578 52.1953 269.266 52.4297C268.953 52.6589 268.578 52.8385 268.141 52.9688C267.708 53.0938 267.221 53.1562 266.68 53.1562C265.893 53.1562 265.227 53.0156 264.68 52.7344C264.138 52.4531 263.727 52.0964 263.445 51.6641C263.169 51.2266 263.031 50.7786 263.031 50.3203H265.164C265.174 50.6276 265.253 50.875 265.398 51.0625C265.549 51.25 265.74 51.3854 265.969 51.4688C266.203 51.5521 266.456 51.5938 266.727 51.5938C267.018 51.5938 267.26 51.5547 267.453 51.4766C267.646 51.3932 267.792 51.2839 267.891 51.1484C267.995 51.0078 268.047 50.8464 268.047 50.6641Z" fill="black"/>
</svg>
